<?xml version="1.0" encoding="UTF-8" standalone="no"?>
<!DOCTYPE svg PUBLIC "-//W3C//DTD SVG 1.1//EN"
 "http://www.w3.org/Graphics/SVG/1.1/DTD/svg11.dtd">
<!-- Generated by graphviz version 2.44.1 (20200629.0846)
 -->
<!-- Title: dependencies Pages: 1 -->
<svg width="713pt" height="211pt"
 viewBox="0.00 0.00 713.00 211.00" xmlns="http://www.w3.org/2000/svg" xmlns:xlink="http://www.w3.org/1999/xlink">
<g id="graph0" class="graph" transform="scale(1 1) rotate(0) translate(4 207)">
<title>dependencies</title>
<polygon fill="white" stroke="transparent" points="-4,4 -4,-207 709,-207 709,4 -4,4"/>
<text text-anchor="start" x="331.51" y="-42.4" font-family="sans-serif" font-weight="bold" font-size="14.00">Legend</text>
<polygon fill="#ffffb3" stroke="transparent" points="118.5,-10 118.5,-30 138.5,-30 138.5,-10 118.5,-10"/>
<text text-anchor="start" x="142.13" y="-15.4" font-family="sans-serif" font-size="14.00"> &#160;Declarations</text>
<polygon fill="#8dd3c7" stroke="transparent" points="231.5,-10 231.5,-30 251.5,-30 251.5,-10 231.5,-10"/>
<text text-anchor="start" x="255.23" y="-15.4" font-family="sans-serif" font-size="14.00"> &#160;Module</text>
<polygon fill="#80b1d3" stroke="transparent" points="317.5,-10 317.5,-30 337.5,-30 337.5,-10 317.5,-10"/>
<text text-anchor="start" x="341.28" y="-15.4" font-family="sans-serif" font-size="14.00"> &#160;Bootstrap</text>
<polygon fill="#fdb462" stroke="transparent" points="414.5,-10 414.5,-30 434.5,-30 434.5,-10 414.5,-10"/>
<text text-anchor="start" x="438.17" y="-15.4" font-family="sans-serif" font-size="14.00"> &#160;Providers</text>
<polygon fill="#fb8072" stroke="transparent" points="510.5,-10 510.5,-30 530.5,-30 530.5,-10 510.5,-10"/>
<text text-anchor="start" x="534.23" y="-15.4" font-family="sans-serif" font-size="14.00"> &#160;Exports</text>
<g id="clust1" class="cluster">
<title>cluster_OwnTaskPageModule</title>
<polygon fill="none" stroke="black" stroke-dasharray="1,5" points="8,-70 8,-195 697,-195 697,-70 8,-70"/>
</g>
<g id="clust2" class="cluster">
<title>cluster_OwnTaskPageModule_declarations</title>
<polygon fill="none" stroke="black" points="575,-78 575,-130 689,-130 689,-78 575,-78"/>
</g>
<g id="clust4" class="cluster">
<title>cluster_OwnTaskPageModule_imports</title>
<polygon fill="none" stroke="black" points="16,-78 16,-130 567,-130 567,-78 16,-78"/>
</g>
<!-- OwnTaskPage -->
<g id="node1" class="node">
<title>OwnTaskPage</title>
<polygon fill="#ffffb3" stroke="black" points="680.64,-122 583.36,-122 583.36,-86 680.64,-86 680.64,-122"/>
<text text-anchor="middle" x="632" y="-99.8" font-family="Times,serif" font-size="14.00">OwnTaskPage</text>
</g>
<!-- OwnTaskPageModule -->
<g id="node2" class="node">
<title>OwnTaskPageModule</title>
<polygon fill="#8dd3c7" stroke="black" points="452.69,-187 449.69,-191 428.69,-191 425.69,-187 311.31,-187 311.31,-151 452.69,-151 452.69,-187"/>
<text text-anchor="middle" x="382" y="-164.8" font-family="Times,serif" font-size="14.00">OwnTaskPageModule</text>
</g>
<!-- OwnTaskPage&#45;&gt;OwnTaskPageModule -->
<g id="edge1" class="edge">
<title>OwnTaskPage&#45;&gt;OwnTaskPageModule</title>
<path fill="none" stroke="black" d="M632,-122.11C632,-141.34 632,-169 632,-169 632,-169 462.64,-169 462.64,-169"/>
<polygon fill="black" stroke="black" points="462.64,-165.5 452.64,-169 462.64,-172.5 462.64,-165.5"/>
</g>
<!-- CommonModule -->
<g id="node3" class="node">
<title>CommonModule</title>
<polygon fill="#8dd3c7" stroke="black" points="558.67,-122 555.67,-126 534.67,-126 531.67,-122 447.33,-122 447.33,-86 558.67,-86 558.67,-122"/>
<text text-anchor="middle" x="503" y="-99.8" font-family="Times,serif" font-size="14.00">CommonModule</text>
</g>
<!-- CommonModule&#45;&gt;OwnTaskPageModule -->
<g id="edge2" class="edge">
<title>CommonModule&#45;&gt;OwnTaskPageModule</title>
<path fill="none" stroke="black" d="M447.13,-104C441.85,-104 438.42,-104 438.42,-104 438.42,-104 438.42,-140.89 438.42,-140.89"/>
<polygon fill="black" stroke="black" points="434.92,-140.89 438.42,-150.89 441.92,-140.89 434.92,-140.89"/>
</g>
<!-- FormsModule -->
<g id="node4" class="node">
<title>FormsModule</title>
<polygon fill="#8dd3c7" stroke="black" points="429.83,-122 426.83,-126 405.83,-126 402.83,-122 334.17,-122 334.17,-86 429.83,-86 429.83,-122"/>
<text text-anchor="middle" x="382" y="-99.8" font-family="Times,serif" font-size="14.00">FormsModule</text>
</g>
<!-- FormsModule&#45;&gt;OwnTaskPageModule -->
<g id="edge3" class="edge">
<title>FormsModule&#45;&gt;OwnTaskPageModule</title>
<path fill="none" stroke="black" d="M382,-122.11C382,-122.11 382,-140.99 382,-140.99"/>
<polygon fill="black" stroke="black" points="378.5,-140.99 382,-150.99 385.5,-140.99 378.5,-140.99"/>
</g>
<!-- IonicModule -->
<g id="node5" class="node">
<title>IonicModule</title>
<polygon fill="#8dd3c7" stroke="black" points="316.32,-122 313.32,-126 292.32,-126 289.32,-122 227.68,-122 227.68,-86 316.32,-86 316.32,-122"/>
<text text-anchor="middle" x="272" y="-99.8" font-family="Times,serif" font-size="14.00">IonicModule</text>
</g>
<!-- IonicModule&#45;&gt;OwnTaskPageModule -->
<g id="edge4" class="edge">
<title>IonicModule&#45;&gt;OwnTaskPageModule</title>
<path fill="none" stroke="black" d="M316.45,-104C321.71,-104 325.25,-104 325.25,-104 325.25,-104 325.25,-140.89 325.25,-140.89"/>
<polygon fill="black" stroke="black" points="321.75,-140.89 325.25,-150.89 328.75,-140.89 321.75,-140.89"/>
</g>
<!-- OwnTaskPageRoutingModule -->
<g id="node6" class="node">
<title>OwnTaskPageRoutingModule</title>
<polygon fill="#8dd3c7" stroke="black" points="210.3,-122 207.3,-126 186.3,-126 183.3,-122 23.7,-122 23.7,-86 210.3,-86 210.3,-122"/>
<text text-anchor="middle" x="117" y="-99.8" font-family="Times,serif" font-size="14.00">OwnTaskPageRoutingModule</text>
</g>
<!-- OwnTaskPageRoutingModule&#45;&gt;OwnTaskPageModule -->
<g id="edge5" class="edge">
<title>OwnTaskPageRoutingModule&#45;&gt;OwnTaskPageModule</title>
<path fill="none" stroke="black" d="M117,-122.11C117,-141.34 117,-169 117,-169 117,-169 301.33,-169 301.33,-169"/>
<polygon fill="black" stroke="black" points="301.33,-172.5 311.33,-169 301.33,-165.5 301.33,-172.5"/>
</g>
</g>
</svg>
