<?xml version="1.0" encoding="UTF-8" standalone="no"?>
<!DOCTYPE svg PUBLIC "-//W3C//DTD SVG 1.1//EN"
 "http://www.w3.org/Graphics/SVG/1.1/DTD/svg11.dtd">
<!-- Generated by graphviz version 2.44.1 (20200629.0846)
 -->
<!-- Title: dependencies Pages: 1 -->
<svg width="715pt" height="211pt"
 viewBox="0.00 0.00 715.00 211.00" xmlns="http://www.w3.org/2000/svg" xmlns:xlink="http://www.w3.org/1999/xlink">
<g id="graph0" class="graph" transform="scale(1 1) rotate(0) translate(4 207)">
<title>dependencies</title>
<polygon fill="white" stroke="transparent" points="-4,4 -4,-207 711,-207 711,4 -4,4"/>
<text text-anchor="start" x="332.51" y="-42.4" font-family="sans-serif" font-weight="bold" font-size="14.00">Legend</text>
<polygon fill="#ffffb3" stroke="transparent" points="119.5,-10 119.5,-30 139.5,-30 139.5,-10 119.5,-10"/>
<text text-anchor="start" x="143.13" y="-15.4" font-family="sans-serif" font-size="14.00"> &#160;Declarations</text>
<polygon fill="#8dd3c7" stroke="transparent" points="232.5,-10 232.5,-30 252.5,-30 252.5,-10 232.5,-10"/>
<text text-anchor="start" x="256.23" y="-15.4" font-family="sans-serif" font-size="14.00"> &#160;Module</text>
<polygon fill="#80b1d3" stroke="transparent" points="318.5,-10 318.5,-30 338.5,-30 338.5,-10 318.5,-10"/>
<text text-anchor="start" x="342.28" y="-15.4" font-family="sans-serif" font-size="14.00"> &#160;Bootstrap</text>
<polygon fill="#fdb462" stroke="transparent" points="415.5,-10 415.5,-30 435.5,-30 435.5,-10 415.5,-10"/>
<text text-anchor="start" x="439.17" y="-15.4" font-family="sans-serif" font-size="14.00"> &#160;Providers</text>
<polygon fill="#fb8072" stroke="transparent" points="511.5,-10 511.5,-30 531.5,-30 531.5,-10 511.5,-10"/>
<text text-anchor="start" x="535.23" y="-15.4" font-family="sans-serif" font-size="14.00"> &#160;Exports</text>
<g id="clust1" class="cluster">
<title>cluster_CommentPageModule</title>
<polygon fill="none" stroke="black" stroke-dasharray="1,5" points="8,-70 8,-195 699,-195 699,-70 8,-70"/>
</g>
<g id="clust4" class="cluster">
<title>cluster_CommentPageModule_imports</title>
<polygon fill="none" stroke="black" points="138,-78 138,-130 691,-130 691,-78 138,-78"/>
</g>
<g id="clust2" class="cluster">
<title>cluster_CommentPageModule_declarations</title>
<polygon fill="none" stroke="black" points="16,-78 16,-130 130,-130 130,-78 16,-78"/>
</g>
<!-- CommentPage -->
<g id="node1" class="node">
<title>CommentPage</title>
<polygon fill="#ffffb3" stroke="black" points="122.44,-122 23.56,-122 23.56,-86 122.44,-86 122.44,-122"/>
<text text-anchor="middle" x="73" y="-99.8" font-family="Times,serif" font-size="14.00">CommentPage</text>
</g>
<!-- CommentPageModule -->
<g id="node2" class="node">
<title>CommentPageModule</title>
<polygon fill="#8dd3c7" stroke="black" points="466.98,-187 463.98,-191 442.98,-191 439.98,-187 325.02,-187 325.02,-151 466.98,-151 466.98,-187"/>
<text text-anchor="middle" x="396" y="-164.8" font-family="Times,serif" font-size="14.00">CommentPageModule</text>
</g>
<!-- CommentPage&#45;&gt;CommentPageModule -->
<g id="edge1" class="edge">
<title>CommentPage&#45;&gt;CommentPageModule</title>
<path fill="none" stroke="black" d="M73,-122.11C73,-141.34 73,-169 73,-169 73,-169 314.72,-169 314.72,-169"/>
<polygon fill="black" stroke="black" points="314.72,-172.5 324.72,-169 314.72,-165.5 314.72,-172.5"/>
</g>
<!-- CommonModule -->
<g id="node3" class="node">
<title>CommonModule</title>
<polygon fill="#8dd3c7" stroke="black" points="682.67,-122 679.67,-126 658.67,-126 655.67,-122 571.33,-122 571.33,-86 682.67,-86 682.67,-122"/>
<text text-anchor="middle" x="627" y="-99.8" font-family="Times,serif" font-size="14.00">CommonModule</text>
</g>
<!-- CommonModule&#45;&gt;CommentPageModule -->
<g id="edge2" class="edge">
<title>CommonModule&#45;&gt;CommentPageModule</title>
<path fill="none" stroke="black" d="M627,-122.11C627,-141.34 627,-169 627,-169 627,-169 477.19,-169 477.19,-169"/>
<polygon fill="black" stroke="black" points="477.19,-165.5 467.19,-169 477.19,-172.5 477.19,-165.5"/>
</g>
<!-- FormsModule -->
<g id="node4" class="node">
<title>FormsModule</title>
<polygon fill="#8dd3c7" stroke="black" points="553.83,-122 550.83,-126 529.83,-126 526.83,-122 458.17,-122 458.17,-86 553.83,-86 553.83,-122"/>
<text text-anchor="middle" x="506" y="-99.8" font-family="Times,serif" font-size="14.00">FormsModule</text>
</g>
<!-- FormsModule&#45;&gt;CommentPageModule -->
<g id="edge3" class="edge">
<title>FormsModule&#45;&gt;CommentPageModule</title>
<path fill="none" stroke="black" d="M462.66,-122.11C462.66,-122.11 462.66,-140.99 462.66,-140.99"/>
<polygon fill="black" stroke="black" points="459.16,-140.99 462.66,-150.99 466.16,-140.99 459.16,-140.99"/>
</g>
<!-- IonicModule -->
<g id="node5" class="node">
<title>IonicModule</title>
<polygon fill="#8dd3c7" stroke="black" points="440.32,-122 437.32,-126 416.32,-126 413.32,-122 351.68,-122 351.68,-86 440.32,-86 440.32,-122"/>
<text text-anchor="middle" x="396" y="-99.8" font-family="Times,serif" font-size="14.00">IonicModule</text>
</g>
<!-- IonicModule&#45;&gt;CommentPageModule -->
<g id="edge4" class="edge">
<title>IonicModule&#45;&gt;CommentPageModule</title>
<path fill="none" stroke="black" d="M396,-122.11C396,-122.11 396,-140.99 396,-140.99"/>
<polygon fill="black" stroke="black" points="392.5,-140.99 396,-150.99 399.5,-140.99 392.5,-140.99"/>
</g>
<!-- CommentPageRoutingModule -->
<g id="node6" class="node">
<title>CommentPageRoutingModule</title>
<polygon fill="#8dd3c7" stroke="black" points="333.6,-122 330.6,-126 309.6,-126 306.6,-122 146.4,-122 146.4,-86 333.6,-86 333.6,-122"/>
<text text-anchor="middle" x="240" y="-99.8" font-family="Times,serif" font-size="14.00">CommentPageRoutingModule</text>
</g>
<!-- CommentPageRoutingModule&#45;&gt;CommentPageModule -->
<g id="edge5" class="edge">
<title>CommentPageRoutingModule&#45;&gt;CommentPageModule</title>
<path fill="none" stroke="black" d="M329.28,-122.11C329.28,-122.11 329.28,-140.99 329.28,-140.99"/>
<polygon fill="black" stroke="black" points="325.78,-140.99 329.28,-150.99 332.78,-140.99 325.78,-140.99"/>
</g>
</g>
</svg>
