<?xml version="1.0" encoding="UTF-8" standalone="no"?>
<!DOCTYPE svg PUBLIC "-//W3C//DTD SVG 1.1//EN"
 "http://www.w3.org/Graphics/SVG/1.1/DTD/svg11.dtd">
<!-- Generated by graphviz version 2.44.1 (20200629.0846)
 -->
<!-- Title: dependencies Pages: 1 -->
<svg width="1115pt" height="211pt"
 viewBox="0.00 0.00 1115.00 211.00" xmlns="http://www.w3.org/2000/svg" xmlns:xlink="http://www.w3.org/1999/xlink">
<g id="graph0" class="graph" transform="scale(1 1) rotate(0) translate(4 207)">
<title>dependencies</title>
<polygon fill="white" stroke="transparent" points="-4,4 -4,-207 1111,-207 1111,4 -4,4"/>
<text text-anchor="start" x="532.51" y="-42.4" font-family="sans-serif" font-weight="bold" font-size="14.00">Legend</text>
<polygon fill="#ffffb3" stroke="transparent" points="319.5,-10 319.5,-30 339.5,-30 339.5,-10 319.5,-10"/>
<text text-anchor="start" x="343.13" y="-15.4" font-family="sans-serif" font-size="14.00"> &#160;Declarations</text>
<polygon fill="#8dd3c7" stroke="transparent" points="432.5,-10 432.5,-30 452.5,-30 452.5,-10 432.5,-10"/>
<text text-anchor="start" x="456.23" y="-15.4" font-family="sans-serif" font-size="14.00"> &#160;Module</text>
<polygon fill="#80b1d3" stroke="transparent" points="518.5,-10 518.5,-30 538.5,-30 538.5,-10 518.5,-10"/>
<text text-anchor="start" x="542.28" y="-15.4" font-family="sans-serif" font-size="14.00"> &#160;Bootstrap</text>
<polygon fill="#fdb462" stroke="transparent" points="615.5,-10 615.5,-30 635.5,-30 635.5,-10 615.5,-10"/>
<text text-anchor="start" x="639.17" y="-15.4" font-family="sans-serif" font-size="14.00"> &#160;Providers</text>
<polygon fill="#fb8072" stroke="transparent" points="711.5,-10 711.5,-30 731.5,-30 731.5,-10 711.5,-10"/>
<text text-anchor="start" x="735.23" y="-15.4" font-family="sans-serif" font-size="14.00"> &#160;Exports</text>
<g id="clust1" class="cluster">
<title>cluster_HomePageModule</title>
<polygon fill="none" stroke="black" stroke-dasharray="1,5" points="8,-70 8,-195 1099,-195 1099,-70 8,-70"/>
</g>
<g id="clust5" class="cluster">
<title>cluster_HomePageModule_imports</title>
<polygon fill="none" stroke="black" points="557,-78 557,-130 1091,-130 1091,-78 557,-78"/>
</g>
<g id="clust8" class="cluster">
<title>cluster_HomePageModule_providers</title>
<polygon fill="none" stroke="black" points="273,-78 273,-130 549,-130 549,-78 273,-78"/>
</g>
<g id="clust2" class="cluster">
<title>cluster_HomePageModule_declarations</title>
<polygon fill="none" stroke="black" points="16,-78 16,-130 265,-130 265,-78 16,-78"/>
</g>
<!-- HomePage -->
<g id="node1" class="node">
<title>HomePage</title>
<polygon fill="#ffffb3" stroke="black" points="256.92,-122 179.08,-122 179.08,-86 256.92,-86 256.92,-122"/>
<text text-anchor="middle" x="218" y="-99.8" font-family="Times,serif" font-size="14.00">HomePage</text>
</g>
<!-- HomePageModule -->
<g id="node3" class="node">
<title>HomePageModule</title>
<polygon fill="#8dd3c7" stroke="black" points="605.47,-187 602.47,-191 581.47,-191 578.47,-187 484.53,-187 484.53,-151 605.47,-151 605.47,-187"/>
<text text-anchor="middle" x="545" y="-164.8" font-family="Times,serif" font-size="14.00">HomePageModule</text>
</g>
<!-- HomePage&#45;&gt;HomePageModule -->
<g id="edge1" class="edge">
<title>HomePage&#45;&gt;HomePageModule</title>
<path fill="none" stroke="black" d="M218,-122.11C218,-141.34 218,-169 218,-169 218,-169 474.26,-169 474.26,-169"/>
<polygon fill="black" stroke="black" points="474.26,-172.5 484.26,-169 474.26,-165.5 474.26,-172.5"/>
</g>
<!-- ListRoomComponent -->
<g id="node2" class="node">
<title>ListRoomComponent</title>
<polygon fill="#ffffb3" stroke="black" points="161.84,-122 24.16,-122 24.16,-86 161.84,-86 161.84,-122"/>
<text text-anchor="middle" x="93" y="-99.8" font-family="Times,serif" font-size="14.00">ListRoomComponent</text>
</g>
<!-- ListRoomComponent&#45;&gt;HomePageModule -->
<g id="edge2" class="edge">
<title>ListRoomComponent&#45;&gt;HomePageModule</title>
<path fill="none" stroke="black" d="M93,-122.29C93,-144.21 93,-178 93,-178 93,-178 474.51,-178 474.51,-178"/>
<polygon fill="black" stroke="black" points="474.51,-181.5 484.51,-178 474.51,-174.5 474.51,-181.5"/>
</g>
<!-- CommonModule -->
<g id="node4" class="node">
<title>CommonModule</title>
<polygon fill="#8dd3c7" stroke="black" points="1082.67,-122 1079.67,-126 1058.67,-126 1055.67,-122 971.33,-122 971.33,-86 1082.67,-86 1082.67,-122"/>
<text text-anchor="middle" x="1027" y="-99.8" font-family="Times,serif" font-size="14.00">CommonModule</text>
</g>
<!-- CommonModule&#45;&gt;HomePageModule -->
<g id="edge3" class="edge">
<title>CommonModule&#45;&gt;HomePageModule</title>
<path fill="none" stroke="black" d="M1027,-122.29C1027,-144.21 1027,-178 1027,-178 1027,-178 615.56,-178 615.56,-178"/>
<polygon fill="black" stroke="black" points="615.56,-174.5 605.56,-178 615.56,-181.5 615.56,-174.5"/>
</g>
<!-- IonicModule -->
<g id="node5" class="node">
<title>IonicModule</title>
<polygon fill="#8dd3c7" stroke="black" points="953.32,-122 950.32,-126 929.32,-126 926.32,-122 864.68,-122 864.68,-86 953.32,-86 953.32,-122"/>
<text text-anchor="middle" x="909" y="-99.8" font-family="Times,serif" font-size="14.00">IonicModule</text>
</g>
<!-- IonicModule&#45;&gt;HomePageModule -->
<g id="edge4" class="edge">
<title>IonicModule&#45;&gt;HomePageModule</title>
<path fill="none" stroke="black" d="M909,-122.11C909,-141.34 909,-169 909,-169 909,-169 615.52,-169 615.52,-169"/>
<polygon fill="black" stroke="black" points="615.52,-165.5 605.52,-169 615.52,-172.5 615.52,-165.5"/>
</g>
<!-- HomePageRoutingModule -->
<g id="node6" class="node">
<title>HomePageRoutingModule</title>
<polygon fill="#8dd3c7" stroke="black" points="847.09,-122 844.09,-126 823.09,-126 820.09,-122 680.91,-122 680.91,-86 847.09,-86 847.09,-122"/>
<text text-anchor="middle" x="764" y="-99.8" font-family="Times,serif" font-size="14.00">HomePageRoutingModule</text>
</g>
<!-- HomePageRoutingModule&#45;&gt;HomePageModule -->
<g id="edge5" class="edge">
<title>HomePageRoutingModule&#45;&gt;HomePageModule</title>
<path fill="none" stroke="black" d="M764,-122.03C764,-138.4 764,-160 764,-160 764,-160 615.71,-160 615.71,-160"/>
<polygon fill="black" stroke="black" points="615.71,-156.5 605.71,-160 615.71,-163.5 615.71,-156.5"/>
</g>
<!-- SharedModule -->
<g id="node7" class="node">
<title>SharedModule</title>
<polygon fill="#8dd3c7" stroke="black" points="663.42,-122 660.42,-126 639.42,-126 636.42,-122 564.58,-122 564.58,-86 663.42,-86 663.42,-122"/>
<text text-anchor="middle" x="614" y="-99.8" font-family="Times,serif" font-size="14.00">SharedModule</text>
</g>
<!-- SharedModule&#45;&gt;HomePageModule -->
<g id="edge6" class="edge">
<title>SharedModule&#45;&gt;HomePageModule</title>
<path fill="none" stroke="black" d="M585.14,-122.11C585.14,-122.11 585.14,-140.99 585.14,-140.99"/>
<polygon fill="black" stroke="black" points="581.64,-140.99 585.14,-150.99 588.64,-140.99 581.64,-140.99"/>
</g>
<!-- HomeService -->
<g id="node8" class="node">
<title>HomeService</title>
<ellipse fill="#fdb462" stroke="black" cx="477" cy="-104" rx="63.68" ry="18"/>
<text text-anchor="middle" x="477" y="-99.8" font-family="Times,serif" font-size="14.00">HomeService</text>
</g>
<!-- HomeService&#45;&gt;HomePageModule -->
<g id="edge7" class="edge">
<title>HomeService&#45;&gt;HomePageModule</title>
<path fill="none" stroke="black" d="M512.55,-119.08C512.55,-119.08 512.55,-140.76 512.55,-140.76"/>
<polygon fill="black" stroke="black" points="509.05,-140.76 512.55,-150.76 516.05,-140.76 509.05,-140.76"/>
</g>
<!-- HomeLogic -->
<g id="node9" class="node">
<title>HomeLogic</title>
<ellipse fill="#fdb462" stroke="black" cx="338" cy="-104" rx="57.32" ry="18"/>
<text text-anchor="middle" x="338" y="-99.8" font-family="Times,serif" font-size="14.00">HomeLogic</text>
</g>
<!-- HomeLogic&#45;&gt;HomePageModule -->
<g id="edge8" class="edge">
<title>HomeLogic&#45;&gt;HomePageModule</title>
<path fill="none" stroke="black" d="M338,-122.03C338,-138.4 338,-160 338,-160 338,-160 474.29,-160 474.29,-160"/>
<polygon fill="black" stroke="black" points="474.29,-163.5 484.29,-160 474.29,-156.5 474.29,-163.5"/>
</g>
</g>
</svg>
