<?xml version="1.0" encoding="UTF-8" standalone="no"?>
<!DOCTYPE svg PUBLIC "-//W3C//DTD SVG 1.1//EN"
 "http://www.w3.org/Graphics/SVG/1.1/DTD/svg11.dtd">
<!-- Generated by graphviz version 2.44.1 (20200629.0846)
 -->
<!-- Title: dependencies Pages: 1 -->
<svg width="778pt" height="211pt"
 viewBox="0.00 0.00 778.00 211.00" xmlns="http://www.w3.org/2000/svg" xmlns:xlink="http://www.w3.org/1999/xlink">
<g id="graph0" class="graph" transform="scale(1 1) rotate(0) translate(4 207)">
<title>dependencies</title>
<polygon fill="white" stroke="transparent" points="-4,4 -4,-207 774,-207 774,4 -4,4"/>
<text text-anchor="start" x="364.01" y="-42.4" font-family="sans-serif" font-weight="bold" font-size="14.00">Legend</text>
<polygon fill="#ffffb3" stroke="transparent" points="151,-10 151,-30 171,-30 171,-10 151,-10"/>
<text text-anchor="start" x="174.63" y="-15.4" font-family="sans-serif" font-size="14.00"> &#160;Declarations</text>
<polygon fill="#8dd3c7" stroke="transparent" points="264,-10 264,-30 284,-30 284,-10 264,-10"/>
<text text-anchor="start" x="287.73" y="-15.4" font-family="sans-serif" font-size="14.00"> &#160;Module</text>
<polygon fill="#80b1d3" stroke="transparent" points="350,-10 350,-30 370,-30 370,-10 350,-10"/>
<text text-anchor="start" x="373.78" y="-15.4" font-family="sans-serif" font-size="14.00"> &#160;Bootstrap</text>
<polygon fill="#fdb462" stroke="transparent" points="447,-10 447,-30 467,-30 467,-10 447,-10"/>
<text text-anchor="start" x="470.67" y="-15.4" font-family="sans-serif" font-size="14.00"> &#160;Providers</text>
<polygon fill="#fb8072" stroke="transparent" points="543,-10 543,-30 563,-30 563,-10 543,-10"/>
<text text-anchor="start" x="566.73" y="-15.4" font-family="sans-serif" font-size="14.00"> &#160;Exports</text>
<g id="clust1" class="cluster">
<title>cluster_RoomMembersPageModule</title>
<polygon fill="none" stroke="black" stroke-dasharray="1,5" points="8,-70 8,-195 762,-195 762,-70 8,-70"/>
</g>
<g id="clust4" class="cluster">
<title>cluster_RoomMembersPageModule_imports</title>
<polygon fill="none" stroke="black" points="170,-78 170,-130 754,-130 754,-78 170,-78"/>
</g>
<g id="clust2" class="cluster">
<title>cluster_RoomMembersPageModule_declarations</title>
<polygon fill="none" stroke="black" points="16,-78 16,-130 162,-130 162,-78 16,-78"/>
</g>
<!-- RoomMembersPage -->
<g id="node1" class="node">
<title>RoomMembersPage</title>
<polygon fill="#ffffb3" stroke="black" points="154.31,-122 23.69,-122 23.69,-86 154.31,-86 154.31,-122"/>
<text text-anchor="middle" x="89" y="-99.8" font-family="Times,serif" font-size="14.00">RoomMembersPage</text>
</g>
<!-- RoomMembersPageModule -->
<g id="node2" class="node">
<title>RoomMembersPageModule</title>
<polygon fill="#8dd3c7" stroke="black" points="545.86,-187 542.86,-191 521.86,-191 518.86,-187 372.14,-187 372.14,-151 545.86,-151 545.86,-187"/>
<text text-anchor="middle" x="459" y="-164.8" font-family="Times,serif" font-size="14.00">RoomMembersPageModule</text>
</g>
<!-- RoomMembersPage&#45;&gt;RoomMembersPageModule -->
<g id="edge1" class="edge">
<title>RoomMembersPage&#45;&gt;RoomMembersPageModule</title>
<path fill="none" stroke="black" d="M89,-122.11C89,-141.34 89,-169 89,-169 89,-169 361.78,-169 361.78,-169"/>
<polygon fill="black" stroke="black" points="361.78,-172.5 371.78,-169 361.78,-165.5 361.78,-172.5"/>
</g>
<!-- CommonModule -->
<g id="node3" class="node">
<title>CommonModule</title>
<polygon fill="#8dd3c7" stroke="black" points="745.67,-122 742.67,-126 721.67,-126 718.67,-122 634.33,-122 634.33,-86 745.67,-86 745.67,-122"/>
<text text-anchor="middle" x="690" y="-99.8" font-family="Times,serif" font-size="14.00">CommonModule</text>
</g>
<!-- CommonModule&#45;&gt;RoomMembersPageModule -->
<g id="edge2" class="edge">
<title>CommonModule&#45;&gt;RoomMembersPageModule</title>
<path fill="none" stroke="black" d="M690,-122.11C690,-141.34 690,-169 690,-169 690,-169 556,-169 556,-169"/>
<polygon fill="black" stroke="black" points="556,-165.5 546,-169 556,-172.5 556,-165.5"/>
</g>
<!-- FormsModule -->
<g id="node4" class="node">
<title>FormsModule</title>
<polygon fill="#8dd3c7" stroke="black" points="616.83,-122 613.83,-126 592.83,-126 589.83,-122 521.17,-122 521.17,-86 616.83,-86 616.83,-122"/>
<text text-anchor="middle" x="569" y="-99.8" font-family="Times,serif" font-size="14.00">FormsModule</text>
</g>
<!-- FormsModule&#45;&gt;RoomMembersPageModule -->
<g id="edge3" class="edge">
<title>FormsModule&#45;&gt;RoomMembersPageModule</title>
<path fill="none" stroke="black" d="M533.63,-122.11C533.63,-122.11 533.63,-140.99 533.63,-140.99"/>
<polygon fill="black" stroke="black" points="530.13,-140.99 533.63,-150.99 537.13,-140.99 530.13,-140.99"/>
</g>
<!-- IonicModule -->
<g id="node5" class="node">
<title>IonicModule</title>
<polygon fill="#8dd3c7" stroke="black" points="503.32,-122 500.32,-126 479.32,-126 476.32,-122 414.68,-122 414.68,-86 503.32,-86 503.32,-122"/>
<text text-anchor="middle" x="459" y="-99.8" font-family="Times,serif" font-size="14.00">IonicModule</text>
</g>
<!-- IonicModule&#45;&gt;RoomMembersPageModule -->
<g id="edge4" class="edge">
<title>IonicModule&#45;&gt;RoomMembersPageModule</title>
<path fill="none" stroke="black" d="M459,-122.11C459,-122.11 459,-140.99 459,-140.99"/>
<polygon fill="black" stroke="black" points="455.5,-140.99 459,-150.99 462.5,-140.99 455.5,-140.99"/>
</g>
<!-- RoomMembersPageRoutingModule -->
<g id="node6" class="node">
<title>RoomMembersPageRoutingModule</title>
<polygon fill="#8dd3c7" stroke="black" points="396.48,-122 393.48,-126 372.48,-126 369.48,-122 177.52,-122 177.52,-86 396.48,-86 396.48,-122"/>
<text text-anchor="middle" x="287" y="-99.8" font-family="Times,serif" font-size="14.00">RoomMembersPageRoutingModule</text>
</g>
<!-- RoomMembersPageRoutingModule&#45;&gt;RoomMembersPageModule -->
<g id="edge5" class="edge">
<title>RoomMembersPageRoutingModule&#45;&gt;RoomMembersPageModule</title>
<path fill="none" stroke="black" d="M384.28,-122.11C384.28,-122.11 384.28,-140.99 384.28,-140.99"/>
<polygon fill="black" stroke="black" points="380.78,-140.99 384.28,-150.99 387.78,-140.99 380.78,-140.99"/>
</g>
</g>
</svg>
