<?xml version="1.0" encoding="UTF-8" standalone="no"?>
<!DOCTYPE svg PUBLIC "-//W3C//DTD SVG 1.1//EN"
 "http://www.w3.org/Graphics/SVG/1.1/DTD/svg11.dtd">
<!-- Generated by graphviz version 2.44.1 (20200629.0846)
 -->
<!-- Title: dependencies Pages: 1 -->
<svg width="2189pt" height="284pt"
 viewBox="0.00 0.00 2189.00 284.00" xmlns="http://www.w3.org/2000/svg" xmlns:xlink="http://www.w3.org/1999/xlink">
<g id="graph0" class="graph" transform="scale(1 1) rotate(0) translate(4 280)">
<title>dependencies</title>
<polygon fill="white" stroke="transparent" points="-4,4 -4,-280 2185,-280 2185,4 -4,4"/>
<text text-anchor="start" x="1069.51" y="-42.4" font-family="sans-serif" font-weight="bold" font-size="14.00">Legend</text>
<polygon fill="#ffffb3" stroke="transparent" points="856.5,-10 856.5,-30 876.5,-30 876.5,-10 856.5,-10"/>
<text text-anchor="start" x="880.13" y="-15.4" font-family="sans-serif" font-size="14.00"> &#160;Declarations</text>
<polygon fill="#8dd3c7" stroke="transparent" points="969.5,-10 969.5,-30 989.5,-30 989.5,-10 969.5,-10"/>
<text text-anchor="start" x="993.23" y="-15.4" font-family="sans-serif" font-size="14.00"> &#160;Module</text>
<polygon fill="#80b1d3" stroke="transparent" points="1055.5,-10 1055.5,-30 1075.5,-30 1075.5,-10 1055.5,-10"/>
<text text-anchor="start" x="1079.28" y="-15.4" font-family="sans-serif" font-size="14.00"> &#160;Bootstrap</text>
<polygon fill="#fdb462" stroke="transparent" points="1152.5,-10 1152.5,-30 1172.5,-30 1172.5,-10 1152.5,-10"/>
<text text-anchor="start" x="1176.17" y="-15.4" font-family="sans-serif" font-size="14.00"> &#160;Providers</text>
<polygon fill="#fb8072" stroke="transparent" points="1248.5,-10 1248.5,-30 1268.5,-30 1268.5,-10 1248.5,-10"/>
<text text-anchor="start" x="1272.23" y="-15.4" font-family="sans-serif" font-size="14.00"> &#160;Exports</text>
<g id="clust1" class="cluster">
<title>cluster_SharedModule</title>
<polygon fill="none" stroke="black" stroke-dasharray="1,5" points="8,-70 8,-268 2173,-268 2173,-70 8,-70"/>
</g>
<g id="clust9" class="cluster">
<title>cluster_SharedModule_imports</title>
<polygon fill="none" stroke="black" points="1655,-78 1655,-130 2165,-130 2165,-78 1655,-78"/>
</g>
<g id="clust10" class="cluster">
<title>cluster_SharedModule_exports</title>
<polygon fill="none" stroke="black" points="580,-208 580,-260 2018,-260 2018,-208 580,-208"/>
</g>
<g id="clust12" class="cluster">
<title>cluster_SharedModule_providers</title>
<polygon fill="none" stroke="black" points="1158,-78 1158,-130 1647,-130 1647,-78 1158,-78"/>
</g>
<g id="clust2" class="cluster">
<title>cluster_SharedModule_declarations</title>
<polygon fill="none" stroke="black" points="16,-78 16,-130 1150,-130 1150,-78 16,-78"/>
</g>
<!-- AddRoomModalComponent -->
<g id="node1" class="node">
<title>AddRoomModalComponent</title>
<polygon fill="#ffffb3" stroke="black" points="1142.22,-122 965.78,-122 965.78,-86 1142.22,-86 1142.22,-122"/>
<text text-anchor="middle" x="1054" y="-99.8" font-family="Times,serif" font-size="14.00">AddRoomModalComponent</text>
</g>
<!-- SharedModule -->
<g id="node7" class="node">
<title>SharedModule</title>
<polygon fill="#8dd3c7" stroke="black" points="1275.42,-187 1272.42,-191 1251.42,-191 1248.42,-187 1176.58,-187 1176.58,-151 1275.42,-151 1275.42,-187"/>
<text text-anchor="middle" x="1226" y="-164.8" font-family="Times,serif" font-size="14.00">SharedModule</text>
</g>
<!-- AddRoomModalComponent&#45;&gt;SharedModule -->
<g id="edge1" class="edge">
<title>AddRoomModalComponent&#45;&gt;SharedModule</title>
<path fill="none" stroke="black" d="M1088.16,-122.12C1088.16,-136.78 1088.16,-155 1088.16,-155 1088.16,-155 1166.62,-155 1166.62,-155"/>
<polygon fill="black" stroke="black" points="1166.62,-158.5 1176.62,-155 1166.62,-151.5 1166.62,-158.5"/>
</g>
<!-- AddTaskModalComponent -->
<g id="node2" class="node">
<title>AddTaskModalComponent</title>
<polygon fill="#ffffb3" stroke="black" points="947.7,-122 778.3,-122 778.3,-86 947.7,-86 947.7,-122"/>
<text text-anchor="middle" x="863" y="-99.8" font-family="Times,serif" font-size="14.00">AddTaskModalComponent</text>
</g>
<!-- AddTaskModalComponent&#45;&gt;SharedModule -->
<g id="edge2" class="edge">
<title>AddTaskModalComponent&#45;&gt;SharedModule</title>
<path fill="none" stroke="black" d="M908.73,-122.01C908.73,-138.05 908.73,-159 908.73,-159 908.73,-159 1166.78,-159 1166.78,-159"/>
<polygon fill="black" stroke="black" points="1166.78,-162.5 1176.78,-159 1166.77,-155.5 1166.78,-162.5"/>
</g>
<!-- DeleteTaskModalComponent -->
<g id="node3" class="node">
<title>DeleteTaskModalComponent</title>
<polygon fill="#ffffb3" stroke="black" points="760.63,-122 579.37,-122 579.37,-86 760.63,-86 760.63,-122"/>
<text text-anchor="middle" x="670" y="-99.8" font-family="Times,serif" font-size="14.00">DeleteTaskModalComponent</text>
</g>
<!-- DeleteTaskModalComponent&#45;&gt;SharedModule -->
<g id="edge3" class="edge">
<title>DeleteTaskModalComponent&#45;&gt;SharedModule</title>
<path fill="none" stroke="black" d="M732.46,-122.03C732.46,-139.06 732.46,-162 732.46,-162 732.46,-162 1166.42,-162 1166.42,-162"/>
<polygon fill="black" stroke="black" points="1166.42,-165.5 1176.42,-162 1166.42,-158.5 1166.42,-165.5"/>
</g>
<!-- EditProfileModalComponent -->
<g id="node4" class="node">
<title>EditProfileModalComponent</title>
<polygon fill="#ffffb3" stroke="black" points="561.82,-122 382.18,-122 382.18,-86 561.82,-86 561.82,-122"/>
<text text-anchor="middle" x="472" y="-99.8" font-family="Times,serif" font-size="14.00">EditProfileModalComponent</text>
</g>
<!-- EditProfileModalComponent&#45;&gt;SharedModule -->
<g id="edge4" class="edge">
<title>EditProfileModalComponent&#45;&gt;SharedModule</title>
<path fill="none" stroke="black" d="M472,-122.27C472,-140.56 472,-166 472,-166 472,-166 1166.53,-166 1166.53,-166"/>
<polygon fill="black" stroke="black" points="1166.53,-169.5 1176.53,-166 1166.53,-162.5 1166.53,-169.5"/>
</g>
<!-- AddPersonModalComponent -->
<g id="node5" class="node">
<title>AddPersonModalComponent</title>
<polygon fill="#ffffb3" stroke="black" points="364.09,-122 183.91,-122 183.91,-86 364.09,-86 364.09,-122"/>
<text text-anchor="middle" x="274" y="-99.8" font-family="Times,serif" font-size="14.00">AddPersonModalComponent</text>
</g>
<!-- AddPersonModalComponent&#45;&gt;SharedModule -->
<g id="edge5" class="edge">
<title>AddPersonModalComponent&#45;&gt;SharedModule</title>
<path fill="none" stroke="black" d="M274,-122.11C274,-141.34 274,-169 274,-169 274,-169 1166.49,-169 1166.49,-169"/>
<polygon fill="black" stroke="black" points="1166.49,-172.5 1176.49,-169 1166.49,-165.5 1166.49,-172.5"/>
</g>
<!-- NoContentComponent -->
<g id="node6" class="node">
<title>NoContentComponent</title>
<polygon fill="#ffffb3" stroke="black" points="166.27,-122 23.73,-122 23.73,-86 166.27,-86 166.27,-122"/>
<text text-anchor="middle" x="95" y="-99.8" font-family="Times,serif" font-size="14.00">NoContentComponent</text>
</g>
<!-- NoContentComponent&#45;&gt;SharedModule -->
<g id="edge6" class="edge">
<title>NoContentComponent&#45;&gt;SharedModule</title>
<path fill="none" stroke="black" d="M95,-122.13C95,-142.57 95,-173 95,-173 95,-173 1166.68,-173 1166.68,-173"/>
<polygon fill="black" stroke="black" points="1166.68,-176.5 1176.68,-173 1166.68,-169.5 1166.68,-176.5"/>
</g>
<!-- AddRoomModalComponent  -->
<g id="node12" class="node">
<title>AddRoomModalComponent </title>
<polygon fill="#fb8072" stroke="black" points="2009.72,-252 1830.28,-252 1830.28,-216 2009.72,-216 2009.72,-252"/>
<text text-anchor="middle" x="1920" y="-229.8" font-family="Times,serif" font-size="14.00">AddRoomModalComponent </text>
</g>
<!-- SharedModule&#45;&gt;AddRoomModalComponent  -->
<g id="edge11" class="edge">
<title>SharedModule&#45;&gt;AddRoomModalComponent </title>
<path fill="none" stroke="black" stroke-dasharray="5,2" d="M1275.25,-177C1424.28,-177 1860.32,-177 1860.32,-177 1860.32,-177 1860.32,-205.96 1860.32,-205.96"/>
<polygon fill="black" stroke="black" points="1856.82,-205.96 1860.32,-215.96 1863.82,-205.96 1856.82,-205.96"/>
</g>
<!-- AddTaskModalComponent  -->
<g id="node13" class="node">
<title>AddTaskModalComponent </title>
<polygon fill="#fb8072" stroke="black" points="1812.2,-252 1639.8,-252 1639.8,-216 1812.2,-216 1812.2,-252"/>
<text text-anchor="middle" x="1726" y="-229.8" font-family="Times,serif" font-size="14.00">AddTaskModalComponent </text>
</g>
<!-- SharedModule&#45;&gt;AddTaskModalComponent  -->
<g id="edge12" class="edge">
<title>SharedModule&#45;&gt;AddTaskModalComponent </title>
<path fill="none" stroke="black" stroke-dasharray="5,2" d="M1275.61,-180C1387.79,-180 1651.25,-180 1651.25,-180 1651.25,-180 1651.25,-205.72 1651.25,-205.72"/>
<polygon fill="black" stroke="black" points="1647.75,-205.72 1651.25,-215.72 1654.75,-205.72 1647.75,-205.72"/>
</g>
<!-- DeleteTaskModalComponent  -->
<g id="node14" class="node">
<title>DeleteTaskModalComponent </title>
<polygon fill="#fb8072" stroke="black" points="1621.63,-252 1436.37,-252 1436.37,-216 1621.63,-216 1621.63,-252"/>
<text text-anchor="middle" x="1529" y="-229.8" font-family="Times,serif" font-size="14.00">DeleteTaskModalComponent </text>
</g>
<!-- SharedModule&#45;&gt;DeleteTaskModalComponent  -->
<g id="edge13" class="edge">
<title>SharedModule&#45;&gt;DeleteTaskModalComponent </title>
<path fill="none" stroke="black" stroke-dasharray="5,2" d="M1275.49,-184C1344,-184 1459.38,-184 1459.38,-184 1459.38,-184 1459.38,-205.95 1459.38,-205.95"/>
<polygon fill="black" stroke="black" points="1455.88,-205.95 1459.38,-215.95 1462.88,-205.95 1455.88,-205.95"/>
</g>
<!-- EditProfileModalComponent  -->
<g id="node15" class="node">
<title>EditProfileModalComponent </title>
<polygon fill="#fb8072" stroke="black" points="1418.32,-252 1235.68,-252 1235.68,-216 1418.32,-216 1418.32,-252"/>
<text text-anchor="middle" x="1327" y="-229.8" font-family="Times,serif" font-size="14.00">EditProfileModalComponent </text>
</g>
<!-- SharedModule&#45;&gt;EditProfileModalComponent  -->
<g id="edge14" class="edge">
<title>SharedModule&#45;&gt;EditProfileModalComponent </title>
<path fill="none" stroke="black" stroke-dasharray="5,2" d="M1255.4,-187.11C1255.4,-187.11 1255.4,-205.99 1255.4,-205.99"/>
<polygon fill="black" stroke="black" points="1251.9,-205.99 1255.4,-215.99 1258.9,-205.99 1251.9,-205.99"/>
</g>
<!-- AddPersonModalComponent  -->
<g id="node16" class="node">
<title>AddPersonModalComponent </title>
<polygon fill="#fb8072" stroke="black" points="1217.59,-252 1034.41,-252 1034.41,-216 1217.59,-216 1217.59,-252"/>
<text text-anchor="middle" x="1126" y="-229.8" font-family="Times,serif" font-size="14.00">AddPersonModalComponent </text>
</g>
<!-- SharedModule&#45;&gt;AddPersonModalComponent  -->
<g id="edge15" class="edge">
<title>SharedModule&#45;&gt;AddPersonModalComponent </title>
<path fill="none" stroke="black" stroke-dasharray="5,2" d="M1197.29,-187.11C1197.29,-187.11 1197.29,-205.99 1197.29,-205.99"/>
<polygon fill="black" stroke="black" points="1193.79,-205.99 1197.29,-215.99 1200.79,-205.99 1193.79,-205.99"/>
</g>
<!-- NoContentComponent  -->
<g id="node17" class="node">
<title>NoContentComponent </title>
<polygon fill="#fb8072" stroke="black" points="1016.27,-252 869.73,-252 869.73,-216 1016.27,-216 1016.27,-252"/>
<text text-anchor="middle" x="943" y="-229.8" font-family="Times,serif" font-size="14.00">NoContentComponent </text>
</g>
<!-- SharedModule&#45;&gt;NoContentComponent  -->
<g id="edge16" class="edge">
<title>SharedModule&#45;&gt;NoContentComponent </title>
<path fill="none" stroke="black" stroke-dasharray="5,2" d="M1176.74,-184C1107.83,-184 991.01,-184 991.01,-184 991.01,-184 991.01,-205.95 991.01,-205.95"/>
<polygon fill="black" stroke="black" points="987.51,-205.95 991.01,-215.95 994.51,-205.95 987.51,-205.95"/>
</g>
<!-- ReactiveFormsModule  -->
<g id="node18" class="node">
<title>ReactiveFormsModule </title>
<polygon fill="#fb8072" stroke="black" points="851.8,-252 704.2,-252 704.2,-216 851.8,-216 851.8,-252"/>
<text text-anchor="middle" x="778" y="-229.8" font-family="Times,serif" font-size="14.00">ReactiveFormsModule </text>
</g>
<!-- SharedModule&#45;&gt;ReactiveFormsModule  -->
<g id="edge17" class="edge">
<title>SharedModule&#45;&gt;ReactiveFormsModule </title>
<path fill="none" stroke="black" stroke-dasharray="5,2" d="M1176.44,-180C1067.17,-180 815.15,-180 815.15,-180 815.15,-180 815.15,-205.72 815.15,-205.72"/>
<polygon fill="black" stroke="black" points="811.65,-205.72 815.15,-215.72 818.65,-205.72 811.65,-205.72"/>
</g>
<!-- FormsModule  -->
<g id="node19" class="node">
<title>FormsModule </title>
<polygon fill="#fb8072" stroke="black" points="686.33,-252 587.67,-252 587.67,-216 686.33,-216 686.33,-252"/>
<text text-anchor="middle" x="637" y="-229.8" font-family="Times,serif" font-size="14.00">FormsModule </text>
</g>
<!-- SharedModule&#45;&gt;FormsModule  -->
<g id="edge18" class="edge">
<title>SharedModule&#45;&gt;FormsModule </title>
<path fill="none" stroke="black" stroke-dasharray="5,2" d="M1176.54,-177C1034.76,-177 637,-177 637,-177 637,-177 637,-205.96 637,-205.96"/>
<polygon fill="black" stroke="black" points="633.5,-205.96 637,-215.96 640.5,-205.96 633.5,-205.96"/>
</g>
<!-- CommonModule -->
<g id="node8" class="node">
<title>CommonModule</title>
<polygon fill="#8dd3c7" stroke="black" points="2156.67,-122 2153.67,-126 2132.67,-126 2129.67,-122 2045.33,-122 2045.33,-86 2156.67,-86 2156.67,-122"/>
<text text-anchor="middle" x="2101" y="-99.8" font-family="Times,serif" font-size="14.00">CommonModule</text>
</g>
<!-- CommonModule&#45;&gt;SharedModule -->
<g id="edge7" class="edge">
<title>CommonModule&#45;&gt;SharedModule</title>
<path fill="none" stroke="black" d="M2101,-122.13C2101,-142.57 2101,-173 2101,-173 2101,-173 1285.23,-173 1285.23,-173"/>
<polygon fill="black" stroke="black" points="1285.23,-169.5 1275.23,-173 1285.23,-176.5 1285.23,-169.5"/>
</g>
<!-- IonicModule -->
<g id="node9" class="node">
<title>IonicModule</title>
<polygon fill="#8dd3c7" stroke="black" points="2027.32,-122 2024.32,-126 2003.32,-126 2000.32,-122 1938.68,-122 1938.68,-86 2027.32,-86 2027.32,-122"/>
<text text-anchor="middle" x="1983" y="-99.8" font-family="Times,serif" font-size="14.00">IonicModule</text>
</g>
<!-- IonicModule&#45;&gt;SharedModule -->
<g id="edge8" class="edge">
<title>IonicModule&#45;&gt;SharedModule</title>
<path fill="none" stroke="black" d="M1974.35,-122.11C1974.35,-141.34 1974.35,-169 1974.35,-169 1974.35,-169 1285.39,-169 1285.39,-169"/>
<polygon fill="black" stroke="black" points="1285.39,-165.5 1275.39,-169 1285.39,-172.5 1285.39,-165.5"/>
</g>
<!-- FormsModule -->
<g id="node10" class="node">
<title>FormsModule</title>
<polygon fill="#8dd3c7" stroke="black" points="1920.83,-122 1917.83,-126 1896.83,-126 1893.83,-122 1825.17,-122 1825.17,-86 1920.83,-86 1920.83,-122"/>
<text text-anchor="middle" x="1873" y="-99.8" font-family="Times,serif" font-size="14.00">FormsModule</text>
</g>
<!-- FormsModule&#45;&gt;SharedModule -->
<g id="edge9" class="edge">
<title>FormsModule&#45;&gt;SharedModule</title>
<path fill="none" stroke="black" d="M1890.49,-122.27C1890.49,-140.56 1890.49,-166 1890.49,-166 1890.49,-166 1285.4,-166 1285.4,-166"/>
<polygon fill="black" stroke="black" points="1285.4,-162.5 1275.4,-166 1285.4,-169.5 1285.4,-162.5"/>
</g>
<!-- ReactiveFormsModule -->
<g id="node11" class="node">
<title>ReactiveFormsModule</title>
<polygon fill="#8dd3c7" stroke="black" points="1807.3,-122 1804.3,-126 1783.3,-126 1780.3,-122 1662.7,-122 1662.7,-86 1807.3,-86 1807.3,-122"/>
<text text-anchor="middle" x="1735" y="-99.8" font-family="Times,serif" font-size="14.00">ReactiveFormsModule</text>
</g>
<!-- ReactiveFormsModule&#45;&gt;SharedModule -->
<g id="edge10" class="edge">
<title>ReactiveFormsModule&#45;&gt;SharedModule</title>
<path fill="none" stroke="black" d="M1735,-122.03C1735,-139.06 1735,-162 1735,-162 1735,-162 1285.27,-162 1285.27,-162"/>
<polygon fill="black" stroke="black" points="1285.27,-158.5 1275.27,-162 1285.27,-165.5 1285.27,-158.5"/>
</g>
<!-- SessionService -->
<g id="node20" class="node">
<title>SessionService</title>
<ellipse fill="#fdb462" stroke="black" cx="1570" cy="-104" rx="69.5" ry="18"/>
<text text-anchor="middle" x="1570" y="-99.8" font-family="Times,serif" font-size="14.00">SessionService</text>
</g>
<!-- SessionService&#45;&gt;SharedModule -->
<g id="edge19" class="edge">
<title>SessionService&#45;&gt;SharedModule</title>
<path fill="none" stroke="black" d="M1561.03,-122.01C1561.03,-138.05 1561.03,-159 1561.03,-159 1561.03,-159 1285.44,-159 1285.44,-159"/>
<polygon fill="black" stroke="black" points="1285.44,-155.5 1275.44,-159 1285.44,-162.5 1285.44,-155.5"/>
</g>
<!-- SharedLogicService -->
<g id="node21" class="node">
<title>SharedLogicService</title>
<ellipse fill="#fdb462" stroke="black" cx="1393" cy="-104" rx="89.16" ry="18"/>
<text text-anchor="middle" x="1393" y="-99.8" font-family="Times,serif" font-size="14.00">SharedLogicService</text>
</g>
<!-- SharedLogicService&#45;&gt;SharedModule -->
<g id="edge20" class="edge">
<title>SharedLogicService&#45;&gt;SharedModule</title>
<path fill="none" stroke="black" d="M1361.04,-120.98C1361.04,-135.82 1361.04,-155 1361.04,-155 1361.04,-155 1285.52,-155 1285.52,-155"/>
<polygon fill="black" stroke="black" points="1285.52,-151.5 1275.52,-155 1285.52,-158.5 1285.52,-151.5"/>
</g>
<!-- ImagePicker -->
<g id="node22" class="node">
<title>ImagePicker</title>
<ellipse fill="#fdb462" stroke="black" cx="1226" cy="-104" rx="59.67" ry="18"/>
<text text-anchor="middle" x="1226" y="-99.8" font-family="Times,serif" font-size="14.00">ImagePicker</text>
</g>
<!-- ImagePicker&#45;&gt;SharedModule -->
<g id="edge21" class="edge">
<title>ImagePicker&#45;&gt;SharedModule</title>
<path fill="none" stroke="black" d="M1226,-122.11C1226,-122.11 1226,-140.99 1226,-140.99"/>
<polygon fill="black" stroke="black" points="1222.5,-140.99 1226,-150.99 1229.5,-140.99 1222.5,-140.99"/>
</g>
</g>
</svg>
