<?xml version="1.0" encoding="UTF-8" standalone="no"?>
<!DOCTYPE svg PUBLIC "-//W3C//DTD SVG 1.1//EN"
 "http://www.w3.org/Graphics/SVG/1.1/DTD/svg11.dtd">
<!-- Generated by graphviz version 2.44.1 (20200629.0846)
 -->
<!-- Title: dependencies Pages: 1 -->
<svg width="683pt" height="211pt"
 viewBox="0.00 0.00 683.00 211.00" xmlns="http://www.w3.org/2000/svg" xmlns:xlink="http://www.w3.org/1999/xlink">
<g id="graph0" class="graph" transform="scale(1 1) rotate(0) translate(4 207)">
<title>dependencies</title>
<polygon fill="white" stroke="transparent" points="-4,4 -4,-207 679,-207 679,4 -4,4"/>
<text text-anchor="start" x="316.51" y="-42.4" font-family="sans-serif" font-weight="bold" font-size="14.00">Legend</text>
<polygon fill="#ffffb3" stroke="transparent" points="103.5,-10 103.5,-30 123.5,-30 123.5,-10 103.5,-10"/>
<text text-anchor="start" x="127.13" y="-15.4" font-family="sans-serif" font-size="14.00"> &#160;Declarations</text>
<polygon fill="#8dd3c7" stroke="transparent" points="216.5,-10 216.5,-30 236.5,-30 236.5,-10 216.5,-10"/>
<text text-anchor="start" x="240.23" y="-15.4" font-family="sans-serif" font-size="14.00"> &#160;Module</text>
<polygon fill="#80b1d3" stroke="transparent" points="302.5,-10 302.5,-30 322.5,-30 322.5,-10 302.5,-10"/>
<text text-anchor="start" x="326.28" y="-15.4" font-family="sans-serif" font-size="14.00"> &#160;Bootstrap</text>
<polygon fill="#fdb462" stroke="transparent" points="399.5,-10 399.5,-30 419.5,-30 419.5,-10 399.5,-10"/>
<text text-anchor="start" x="423.17" y="-15.4" font-family="sans-serif" font-size="14.00"> &#160;Providers</text>
<polygon fill="#fb8072" stroke="transparent" points="495.5,-10 495.5,-30 515.5,-30 515.5,-10 495.5,-10"/>
<text text-anchor="start" x="519.23" y="-15.4" font-family="sans-serif" font-size="14.00"> &#160;Exports</text>
<g id="clust1" class="cluster">
<title>cluster_SettingPageModule</title>
<polygon fill="none" stroke="black" stroke-dasharray="1,5" points="8,-70 8,-195 667,-195 667,-70 8,-70"/>
</g>
<g id="clust4" class="cluster">
<title>cluster_SettingPageModule_imports</title>
<polygon fill="none" stroke="black" points="122,-78 122,-130 659,-130 659,-78 122,-78"/>
</g>
<g id="clust2" class="cluster">
<title>cluster_SettingPageModule_declarations</title>
<polygon fill="none" stroke="black" points="16,-78 16,-130 114,-130 114,-78 16,-78"/>
</g>
<!-- SettingPage -->
<g id="node1" class="node">
<title>SettingPage</title>
<polygon fill="#ffffb3" stroke="black" points="106.38,-122 23.62,-122 23.62,-86 106.38,-86 106.38,-122"/>
<text text-anchor="middle" x="65" y="-99.8" font-family="Times,serif" font-size="14.00">SettingPage</text>
</g>
<!-- SettingPageModule -->
<g id="node2" class="node">
<title>SettingPageModule</title>
<polygon fill="#8dd3c7" stroke="black" points="427.43,-187 424.43,-191 403.43,-191 400.43,-187 300.57,-187 300.57,-151 427.43,-151 427.43,-187"/>
<text text-anchor="middle" x="364" y="-164.8" font-family="Times,serif" font-size="14.00">SettingPageModule</text>
</g>
<!-- SettingPage&#45;&gt;SettingPageModule -->
<g id="edge1" class="edge">
<title>SettingPage&#45;&gt;SettingPageModule</title>
<path fill="none" stroke="black" d="M65,-122.11C65,-141.34 65,-169 65,-169 65,-169 290.59,-169 290.59,-169"/>
<polygon fill="black" stroke="black" points="290.59,-172.5 300.59,-169 290.59,-165.5 290.59,-172.5"/>
</g>
<!-- CommonModule -->
<g id="node3" class="node">
<title>CommonModule</title>
<polygon fill="#8dd3c7" stroke="black" points="650.67,-122 647.67,-126 626.67,-126 623.67,-122 539.33,-122 539.33,-86 650.67,-86 650.67,-122"/>
<text text-anchor="middle" x="595" y="-99.8" font-family="Times,serif" font-size="14.00">CommonModule</text>
</g>
<!-- CommonModule&#45;&gt;SettingPageModule -->
<g id="edge2" class="edge">
<title>CommonModule&#45;&gt;SettingPageModule</title>
<path fill="none" stroke="black" d="M595,-122.11C595,-141.34 595,-169 595,-169 595,-169 437.43,-169 437.43,-169"/>
<polygon fill="black" stroke="black" points="437.43,-165.5 427.43,-169 437.43,-172.5 437.43,-165.5"/>
</g>
<!-- FormsModule -->
<g id="node4" class="node">
<title>FormsModule</title>
<polygon fill="#8dd3c7" stroke="black" points="521.83,-122 518.83,-126 497.83,-126 494.83,-122 426.17,-122 426.17,-86 521.83,-86 521.83,-122"/>
<text text-anchor="middle" x="474" y="-99.8" font-family="Times,serif" font-size="14.00">FormsModule</text>
</g>
<!-- FormsModule&#45;&gt;SettingPageModule -->
<g id="edge3" class="edge">
<title>FormsModule&#45;&gt;SettingPageModule</title>
<path fill="none" stroke="black" d="M426.11,-104C420.79,-104 417.25,-104 417.25,-104 417.25,-104 417.25,-140.89 417.25,-140.89"/>
<polygon fill="black" stroke="black" points="413.75,-140.89 417.25,-150.89 420.75,-140.89 413.75,-140.89"/>
</g>
<!-- IonicModule -->
<g id="node5" class="node">
<title>IonicModule</title>
<polygon fill="#8dd3c7" stroke="black" points="408.32,-122 405.32,-126 384.32,-126 381.32,-122 319.68,-122 319.68,-86 408.32,-86 408.32,-122"/>
<text text-anchor="middle" x="364" y="-99.8" font-family="Times,serif" font-size="14.00">IonicModule</text>
</g>
<!-- IonicModule&#45;&gt;SettingPageModule -->
<g id="edge4" class="edge">
<title>IonicModule&#45;&gt;SettingPageModule</title>
<path fill="none" stroke="black" d="M364,-122.11C364,-122.11 364,-140.99 364,-140.99"/>
<polygon fill="black" stroke="black" points="360.5,-140.99 364,-150.99 367.5,-140.99 360.5,-140.99"/>
</g>
<!-- SettingPageRoutingModule -->
<g id="node6" class="node">
<title>SettingPageRoutingModule</title>
<polygon fill="#8dd3c7" stroke="black" points="301.55,-122 298.55,-126 277.55,-126 274.55,-122 130.45,-122 130.45,-86 301.55,-86 301.55,-122"/>
<text text-anchor="middle" x="216" y="-99.8" font-family="Times,serif" font-size="14.00">SettingPageRoutingModule</text>
</g>
<!-- SettingPageRoutingModule&#45;&gt;SettingPageModule -->
<g id="edge5" class="edge">
<title>SettingPageRoutingModule&#45;&gt;SettingPageModule</title>
<path fill="none" stroke="black" d="M301.72,-104C307.33,-104 310.81,-104 310.81,-104 310.81,-104 310.81,-140.89 310.81,-140.89"/>
<polygon fill="black" stroke="black" points="307.31,-140.89 310.81,-150.89 314.31,-140.89 307.31,-140.89"/>
</g>
</g>
</svg>
