<?xml version="1.0" encoding="UTF-8" standalone="no"?>
<!DOCTYPE svg PUBLIC "-//W3C//DTD SVG 1.1//EN"
 "http://www.w3.org/Graphics/SVG/1.1/DTD/svg11.dtd">
<!-- Generated by graphviz version 2.44.1 (20200629.0846)
 -->
<!-- Title: dependencies Pages: 1 -->
<svg width="1017pt" height="211pt"
 viewBox="0.00 0.00 1017.00 211.00" xmlns="http://www.w3.org/2000/svg" xmlns:xlink="http://www.w3.org/1999/xlink">
<g id="graph0" class="graph" transform="scale(1 1) rotate(0) translate(4 207)">
<title>dependencies</title>
<polygon fill="white" stroke="transparent" points="-4,4 -4,-207 1013,-207 1013,4 -4,4"/>
<text text-anchor="start" x="483.51" y="-42.4" font-family="sans-serif" font-weight="bold" font-size="14.00">Legend</text>
<polygon fill="#ffffb3" stroke="transparent" points="270.5,-10 270.5,-30 290.5,-30 290.5,-10 270.5,-10"/>
<text text-anchor="start" x="294.13" y="-15.4" font-family="sans-serif" font-size="14.00"> &#160;Declarations</text>
<polygon fill="#8dd3c7" stroke="transparent" points="383.5,-10 383.5,-30 403.5,-30 403.5,-10 383.5,-10"/>
<text text-anchor="start" x="407.23" y="-15.4" font-family="sans-serif" font-size="14.00"> &#160;Module</text>
<polygon fill="#80b1d3" stroke="transparent" points="469.5,-10 469.5,-30 489.5,-30 489.5,-10 469.5,-10"/>
<text text-anchor="start" x="493.28" y="-15.4" font-family="sans-serif" font-size="14.00"> &#160;Bootstrap</text>
<polygon fill="#fdb462" stroke="transparent" points="566.5,-10 566.5,-30 586.5,-30 586.5,-10 566.5,-10"/>
<text text-anchor="start" x="590.17" y="-15.4" font-family="sans-serif" font-size="14.00"> &#160;Providers</text>
<polygon fill="#fb8072" stroke="transparent" points="662.5,-10 662.5,-30 682.5,-30 682.5,-10 662.5,-10"/>
<text text-anchor="start" x="686.23" y="-15.4" font-family="sans-serif" font-size="14.00"> &#160;Exports</text>
<g id="clust1" class="cluster">
<title>cluster_ConfirmPageModule</title>
<polygon fill="none" stroke="black" stroke-dasharray="1,5" points="8,-70 8,-195 1001,-195 1001,-70 8,-70"/>
</g>
<g id="clust4" class="cluster">
<title>cluster_ConfirmPageModule_imports</title>
<polygon fill="none" stroke="black" points="286,-78 286,-130 993,-130 993,-78 286,-78"/>
</g>
<g id="clust7" class="cluster">
<title>cluster_ConfirmPageModule_providers</title>
<polygon fill="none" stroke="black" points="130,-78 130,-130 278,-130 278,-78 130,-78"/>
</g>
<g id="clust2" class="cluster">
<title>cluster_ConfirmPageModule_declarations</title>
<polygon fill="none" stroke="black" points="16,-78 16,-130 122,-130 122,-78 16,-78"/>
</g>
<!-- ConfirmPage -->
<g id="node1" class="node">
<title>ConfirmPage</title>
<polygon fill="#ffffb3" stroke="black" points="114.15,-122 23.85,-122 23.85,-86 114.15,-86 114.15,-122"/>
<text text-anchor="middle" x="69" y="-99.8" font-family="Times,serif" font-size="14.00">ConfirmPage</text>
</g>
<!-- ConfirmPageModule -->
<g id="node2" class="node">
<title>ConfirmPageModule</title>
<polygon fill="#8dd3c7" stroke="black" points="631.2,-187 628.2,-191 607.2,-191 604.2,-187 496.8,-187 496.8,-151 631.2,-151 631.2,-187"/>
<text text-anchor="middle" x="564" y="-164.8" font-family="Times,serif" font-size="14.00">ConfirmPageModule</text>
</g>
<!-- ConfirmPage&#45;&gt;ConfirmPageModule -->
<g id="edge1" class="edge">
<title>ConfirmPage&#45;&gt;ConfirmPageModule</title>
<path fill="none" stroke="black" d="M69,-122.29C69,-144.21 69,-178 69,-178 69,-178 486.73,-178 486.73,-178"/>
<polygon fill="black" stroke="black" points="486.73,-181.5 496.73,-178 486.73,-174.5 486.73,-181.5"/>
</g>
<!-- CommonModule -->
<g id="node3" class="node">
<title>CommonModule</title>
<polygon fill="#8dd3c7" stroke="black" points="984.67,-122 981.67,-126 960.67,-126 957.67,-122 873.33,-122 873.33,-86 984.67,-86 984.67,-122"/>
<text text-anchor="middle" x="929" y="-99.8" font-family="Times,serif" font-size="14.00">CommonModule</text>
</g>
<!-- CommonModule&#45;&gt;ConfirmPageModule -->
<g id="edge2" class="edge">
<title>CommonModule&#45;&gt;ConfirmPageModule</title>
<path fill="none" stroke="black" d="M929,-122.29C929,-144.21 929,-178 929,-178 929,-178 641.37,-178 641.37,-178"/>
<polygon fill="black" stroke="black" points="641.37,-174.5 631.37,-178 641.37,-181.5 641.37,-174.5"/>
</g>
<!-- FormsModule -->
<g id="node4" class="node">
<title>FormsModule</title>
<polygon fill="#8dd3c7" stroke="black" points="855.83,-122 852.83,-126 831.83,-126 828.83,-122 760.17,-122 760.17,-86 855.83,-86 855.83,-122"/>
<text text-anchor="middle" x="808" y="-99.8" font-family="Times,serif" font-size="14.00">FormsModule</text>
</g>
<!-- FormsModule&#45;&gt;ConfirmPageModule -->
<g id="edge3" class="edge">
<title>FormsModule&#45;&gt;ConfirmPageModule</title>
<path fill="none" stroke="black" d="M808,-122.11C808,-141.34 808,-169 808,-169 808,-169 641.32,-169 641.32,-169"/>
<polygon fill="black" stroke="black" points="641.32,-165.5 631.32,-169 641.32,-172.5 641.32,-165.5"/>
</g>
<!-- IonicModule -->
<g id="node5" class="node">
<title>IonicModule</title>
<polygon fill="#8dd3c7" stroke="black" points="742.32,-122 739.32,-126 718.32,-126 715.32,-122 653.68,-122 653.68,-86 742.32,-86 742.32,-122"/>
<text text-anchor="middle" x="698" y="-99.8" font-family="Times,serif" font-size="14.00">IonicModule</text>
</g>
<!-- IonicModule&#45;&gt;ConfirmPageModule -->
<g id="edge4" class="edge">
<title>IonicModule&#45;&gt;ConfirmPageModule</title>
<path fill="none" stroke="black" d="M698,-122.03C698,-138.4 698,-160 698,-160 698,-160 641.39,-160 641.39,-160"/>
<polygon fill="black" stroke="black" points="641.39,-156.5 631.39,-160 641.39,-163.5 641.39,-156.5"/>
</g>
<!-- ReactiveFormsModule -->
<g id="node6" class="node">
<title>ReactiveFormsModule</title>
<polygon fill="#8dd3c7" stroke="black" points="636.3,-122 633.3,-126 612.3,-126 609.3,-122 491.7,-122 491.7,-86 636.3,-86 636.3,-122"/>
<text text-anchor="middle" x="564" y="-99.8" font-family="Times,serif" font-size="14.00">ReactiveFormsModule</text>
</g>
<!-- ReactiveFormsModule&#45;&gt;ConfirmPageModule -->
<g id="edge5" class="edge">
<title>ReactiveFormsModule&#45;&gt;ConfirmPageModule</title>
<path fill="none" stroke="black" d="M564,-122.11C564,-122.11 564,-140.99 564,-140.99"/>
<polygon fill="black" stroke="black" points="560.5,-140.99 564,-150.99 567.5,-140.99 560.5,-140.99"/>
</g>
<!-- ConfirmPageRoutingModule -->
<g id="node7" class="node">
<title>ConfirmPageRoutingModule</title>
<polygon fill="#8dd3c7" stroke="black" points="473.82,-122 470.82,-126 449.82,-126 446.82,-122 294.18,-122 294.18,-86 473.82,-86 473.82,-122"/>
<text text-anchor="middle" x="384" y="-99.8" font-family="Times,serif" font-size="14.00">ConfirmPageRoutingModule</text>
</g>
<!-- ConfirmPageRoutingModule&#45;&gt;ConfirmPageModule -->
<g id="edge6" class="edge">
<title>ConfirmPageRoutingModule&#45;&gt;ConfirmPageModule</title>
<path fill="none" stroke="black" d="M384,-122.03C384,-138.4 384,-160 384,-160 384,-160 486.72,-160 486.72,-160"/>
<polygon fill="black" stroke="black" points="486.72,-163.5 496.72,-160 486.72,-156.5 486.72,-163.5"/>
</g>
<!-- ConfirmLogic -->
<g id="node8" class="node">
<title>ConfirmLogic</title>
<ellipse fill="#fdb462" stroke="black" cx="204" cy="-104" rx="66.07" ry="18"/>
<text text-anchor="middle" x="204" y="-99.8" font-family="Times,serif" font-size="14.00">ConfirmLogic</text>
</g>
<!-- ConfirmLogic&#45;&gt;ConfirmPageModule -->
<g id="edge7" class="edge">
<title>ConfirmLogic&#45;&gt;ConfirmPageModule</title>
<path fill="none" stroke="black" d="M204,-122.11C204,-141.34 204,-169 204,-169 204,-169 486.71,-169 486.71,-169"/>
<polygon fill="black" stroke="black" points="486.71,-172.5 496.71,-169 486.71,-165.5 486.71,-172.5"/>
</g>
</g>
</svg>
