<?xml version="1.0" encoding="UTF-8" standalone="no"?>
<!DOCTYPE svg PUBLIC "-//W3C//DTD SVG 1.1//EN"
 "http://www.w3.org/Graphics/SVG/1.1/DTD/svg11.dtd">
<!-- Generated by graphviz version 2.44.1 (20200629.0846)
 -->
<!-- Title: dependencies Pages: 1 -->
<svg width="923pt" height="211pt"
 viewBox="0.00 0.00 923.00 211.00" xmlns="http://www.w3.org/2000/svg" xmlns:xlink="http://www.w3.org/1999/xlink">
<g id="graph0" class="graph" transform="scale(1 1) rotate(0) translate(4 207)">
<title>dependencies</title>
<polygon fill="white" stroke="transparent" points="-4,4 -4,-207 919,-207 919,4 -4,4"/>
<text text-anchor="start" x="436.51" y="-42.4" font-family="sans-serif" font-weight="bold" font-size="14.00">Legend</text>
<polygon fill="#ffffb3" stroke="transparent" points="223.5,-10 223.5,-30 243.5,-30 243.5,-10 223.5,-10"/>
<text text-anchor="start" x="247.13" y="-15.4" font-family="sans-serif" font-size="14.00"> &#160;Declarations</text>
<polygon fill="#8dd3c7" stroke="transparent" points="336.5,-10 336.5,-30 356.5,-30 356.5,-10 336.5,-10"/>
<text text-anchor="start" x="360.23" y="-15.4" font-family="sans-serif" font-size="14.00"> &#160;Module</text>
<polygon fill="#80b1d3" stroke="transparent" points="422.5,-10 422.5,-30 442.5,-30 442.5,-10 422.5,-10"/>
<text text-anchor="start" x="446.28" y="-15.4" font-family="sans-serif" font-size="14.00"> &#160;Bootstrap</text>
<polygon fill="#fdb462" stroke="transparent" points="519.5,-10 519.5,-30 539.5,-30 539.5,-10 519.5,-10"/>
<text text-anchor="start" x="543.17" y="-15.4" font-family="sans-serif" font-size="14.00"> &#160;Providers</text>
<polygon fill="#fb8072" stroke="transparent" points="615.5,-10 615.5,-30 635.5,-30 635.5,-10 615.5,-10"/>
<text text-anchor="start" x="639.23" y="-15.4" font-family="sans-serif" font-size="14.00"> &#160;Exports</text>
<g id="clust1" class="cluster">
<title>cluster_TaskPageModule</title>
<polygon fill="none" stroke="black" stroke-dasharray="1,5" points="8,-70 8,-195 907,-195 907,-70 8,-70"/>
</g>
<g id="clust7" class="cluster">
<title>cluster_TaskPageModule_providers</title>
<polygon fill="none" stroke="black" points="643,-78 643,-130 899,-130 899,-78 643,-78"/>
</g>
<g id="clust2" class="cluster">
<title>cluster_TaskPageModule_declarations</title>
<polygon fill="none" stroke="black" points="549,-78 549,-130 635,-130 635,-78 549,-78"/>
</g>
<g id="clust4" class="cluster">
<title>cluster_TaskPageModule_imports</title>
<polygon fill="none" stroke="black" points="16,-78 16,-130 541,-130 541,-78 16,-78"/>
</g>
<!-- TaskPage -->
<g id="node1" class="node">
<title>TaskPage</title>
<polygon fill="#ffffb3" stroke="black" points="627.42,-122 556.58,-122 556.58,-86 627.42,-86 627.42,-122"/>
<text text-anchor="middle" x="592" y="-99.8" font-family="Times,serif" font-size="14.00">TaskPage</text>
</g>
<!-- TaskPageModule -->
<g id="node2" class="node">
<title>TaskPageModule</title>
<polygon fill="#8dd3c7" stroke="black" points="533.97,-187 530.97,-191 509.97,-191 506.97,-187 420.03,-187 420.03,-151 533.97,-151 533.97,-187"/>
<text text-anchor="middle" x="477" y="-164.8" font-family="Times,serif" font-size="14.00">TaskPageModule</text>
</g>
<!-- TaskPage&#45;&gt;TaskPageModule -->
<g id="edge1" class="edge">
<title>TaskPage&#45;&gt;TaskPageModule</title>
<path fill="none" stroke="black" d="M592,-122.03C592,-138.4 592,-160 592,-160 592,-160 544.16,-160 544.16,-160"/>
<polygon fill="black" stroke="black" points="544.16,-156.5 534.16,-160 544.16,-163.5 544.16,-156.5"/>
</g>
<!-- CommonModule -->
<g id="node3" class="node">
<title>CommonModule</title>
<polygon fill="#8dd3c7" stroke="black" points="532.67,-122 529.67,-126 508.67,-126 505.67,-122 421.33,-122 421.33,-86 532.67,-86 532.67,-122"/>
<text text-anchor="middle" x="477" y="-99.8" font-family="Times,serif" font-size="14.00">CommonModule</text>
</g>
<!-- CommonModule&#45;&gt;TaskPageModule -->
<g id="edge2" class="edge">
<title>CommonModule&#45;&gt;TaskPageModule</title>
<path fill="none" stroke="black" d="M477,-122.11C477,-122.11 477,-140.99 477,-140.99"/>
<polygon fill="black" stroke="black" points="473.5,-140.99 477,-150.99 480.5,-140.99 473.5,-140.99"/>
</g>
<!-- FormsModule -->
<g id="node4" class="node">
<title>FormsModule</title>
<polygon fill="#8dd3c7" stroke="black" points="403.83,-122 400.83,-126 379.83,-126 376.83,-122 308.17,-122 308.17,-86 403.83,-86 403.83,-122"/>
<text text-anchor="middle" x="356" y="-99.8" font-family="Times,serif" font-size="14.00">FormsModule</text>
</g>
<!-- FormsModule&#45;&gt;TaskPageModule -->
<g id="edge3" class="edge">
<title>FormsModule&#45;&gt;TaskPageModule</title>
<path fill="none" stroke="black" d="M356,-122.03C356,-138.4 356,-160 356,-160 356,-160 409.69,-160 409.69,-160"/>
<polygon fill="black" stroke="black" points="409.69,-163.5 419.69,-160 409.69,-156.5 409.69,-163.5"/>
</g>
<!-- IonicModule -->
<g id="node5" class="node">
<title>IonicModule</title>
<polygon fill="#8dd3c7" stroke="black" points="290.32,-122 287.32,-126 266.32,-126 263.32,-122 201.68,-122 201.68,-86 290.32,-86 290.32,-122"/>
<text text-anchor="middle" x="246" y="-99.8" font-family="Times,serif" font-size="14.00">IonicModule</text>
</g>
<!-- IonicModule&#45;&gt;TaskPageModule -->
<g id="edge4" class="edge">
<title>IonicModule&#45;&gt;TaskPageModule</title>
<path fill="none" stroke="black" d="M246,-122.11C246,-141.34 246,-169 246,-169 246,-169 409.9,-169 409.9,-169"/>
<polygon fill="black" stroke="black" points="409.9,-172.5 419.9,-169 409.9,-165.5 409.9,-172.5"/>
</g>
<!-- TaskPageRoutingModule -->
<g id="node6" class="node">
<title>TaskPageRoutingModule</title>
<polygon fill="#8dd3c7" stroke="black" points="183.59,-122 180.59,-126 159.59,-126 156.59,-122 24.41,-122 24.41,-86 183.59,-86 183.59,-122"/>
<text text-anchor="middle" x="104" y="-99.8" font-family="Times,serif" font-size="14.00">TaskPageRoutingModule</text>
</g>
<!-- TaskPageRoutingModule&#45;&gt;TaskPageModule -->
<g id="edge5" class="edge">
<title>TaskPageRoutingModule&#45;&gt;TaskPageModule</title>
<path fill="none" stroke="black" d="M104,-122.29C104,-144.21 104,-178 104,-178 104,-178 409.94,-178 409.94,-178"/>
<polygon fill="black" stroke="black" points="409.94,-181.5 419.94,-178 409.94,-174.5 409.94,-181.5"/>
</g>
<!-- TaskLogic -->
<g id="node7" class="node">
<title>TaskLogic</title>
<ellipse fill="#fdb462" stroke="black" cx="839" cy="-104" rx="52.17" ry="18"/>
<text text-anchor="middle" x="839" y="-99.8" font-family="Times,serif" font-size="14.00">TaskLogic</text>
</g>
<!-- TaskLogic&#45;&gt;TaskPageModule -->
<g id="edge6" class="edge">
<title>TaskLogic&#45;&gt;TaskPageModule</title>
<path fill="none" stroke="black" d="M839,-122.29C839,-144.21 839,-178 839,-178 839,-178 544.36,-178 544.36,-178"/>
<polygon fill="black" stroke="black" points="544.36,-174.5 534.36,-178 544.36,-181.5 544.36,-174.5"/>
</g>
<!-- TaskService -->
<g id="node8" class="node">
<title>TaskService</title>
<ellipse fill="#fdb462" stroke="black" cx="710" cy="-104" rx="58.53" ry="18"/>
<text text-anchor="middle" x="710" y="-99.8" font-family="Times,serif" font-size="14.00">TaskService</text>
</g>
<!-- TaskService&#45;&gt;TaskPageModule -->
<g id="edge7" class="edge">
<title>TaskService&#45;&gt;TaskPageModule</title>
<path fill="none" stroke="black" d="M710,-122.11C710,-141.34 710,-169 710,-169 710,-169 544,-169 544,-169"/>
<polygon fill="black" stroke="black" points="544,-165.5 534,-169 544,-172.5 544,-165.5"/>
</g>
</g>
</svg>
