<?xml version="1.0" encoding="UTF-8" standalone="no"?>
<!DOCTYPE svg PUBLIC "-//W3C//DTD SVG 1.1//EN"
 "http://www.w3.org/Graphics/SVG/1.1/DTD/svg11.dtd">
<!-- Generated by graphviz version 2.44.1 (20200629.0846)
 -->
<!-- Title: dependencies Pages: 1 -->
<svg width="971pt" height="211pt"
 viewBox="0.00 0.00 971.00 211.00" xmlns="http://www.w3.org/2000/svg" xmlns:xlink="http://www.w3.org/1999/xlink">
<g id="graph0" class="graph" transform="scale(1 1) rotate(0) translate(4 207)">
<title>dependencies</title>
<polygon fill="white" stroke="transparent" points="-4,4 -4,-207 967,-207 967,4 -4,4"/>
<text text-anchor="start" x="460.51" y="-42.4" font-family="sans-serif" font-weight="bold" font-size="14.00">Legend</text>
<polygon fill="#ffffb3" stroke="transparent" points="247.5,-10 247.5,-30 267.5,-30 267.5,-10 247.5,-10"/>
<text text-anchor="start" x="271.13" y="-15.4" font-family="sans-serif" font-size="14.00"> &#160;Declarations</text>
<polygon fill="#8dd3c7" stroke="transparent" points="360.5,-10 360.5,-30 380.5,-30 380.5,-10 360.5,-10"/>
<text text-anchor="start" x="384.23" y="-15.4" font-family="sans-serif" font-size="14.00"> &#160;Module</text>
<polygon fill="#80b1d3" stroke="transparent" points="446.5,-10 446.5,-30 466.5,-30 466.5,-10 446.5,-10"/>
<text text-anchor="start" x="470.28" y="-15.4" font-family="sans-serif" font-size="14.00"> &#160;Bootstrap</text>
<polygon fill="#fdb462" stroke="transparent" points="543.5,-10 543.5,-30 563.5,-30 563.5,-10 543.5,-10"/>
<text text-anchor="start" x="567.17" y="-15.4" font-family="sans-serif" font-size="14.00"> &#160;Providers</text>
<polygon fill="#fb8072" stroke="transparent" points="639.5,-10 639.5,-30 659.5,-30 659.5,-10 639.5,-10"/>
<text text-anchor="start" x="663.23" y="-15.4" font-family="sans-serif" font-size="14.00"> &#160;Exports</text>
<g id="clust1" class="cluster">
<title>cluster_LoginPageModule</title>
<polygon fill="none" stroke="black" stroke-dasharray="1,5" points="8,-70 8,-195 955,-195 955,-70 8,-70"/>
</g>
<g id="clust7" class="cluster">
<title>cluster_LoginPageModule_providers</title>
<polygon fill="none" stroke="black" points="817,-78 817,-130 947,-130 947,-78 817,-78"/>
</g>
<g id="clust2" class="cluster">
<title>cluster_LoginPageModule_declarations</title>
<polygon fill="none" stroke="black" points="717,-78 717,-130 809,-130 809,-78 717,-78"/>
</g>
<g id="clust4" class="cluster">
<title>cluster_LoginPageModule_imports</title>
<polygon fill="none" stroke="black" points="16,-78 16,-130 709,-130 709,-78 16,-78"/>
</g>
<!-- LoginPage -->
<g id="node1" class="node">
<title>LoginPage</title>
<polygon fill="#ffffb3" stroke="black" points="801.16,-122 724.84,-122 724.84,-86 801.16,-86 801.16,-122"/>
<text text-anchor="middle" x="763" y="-99.8" font-family="Times,serif" font-size="14.00">LoginPage</text>
</g>
<!-- LoginPageModule -->
<g id="node2" class="node">
<title>LoginPageModule</title>
<polygon fill="#8dd3c7" stroke="black" points="584.2,-187 581.2,-191 560.2,-191 557.2,-187 463.8,-187 463.8,-151 584.2,-151 584.2,-187"/>
<text text-anchor="middle" x="524" y="-164.8" font-family="Times,serif" font-size="14.00">LoginPageModule</text>
</g>
<!-- LoginPage&#45;&gt;LoginPageModule -->
<g id="edge1" class="edge">
<title>LoginPage&#45;&gt;LoginPageModule</title>
<path fill="none" stroke="black" d="M763,-122.02C763,-139.37 763,-163 763,-163 763,-163 594.31,-163 594.31,-163"/>
<polygon fill="black" stroke="black" points="594.31,-159.5 584.31,-163 594.31,-166.5 594.31,-159.5"/>
</g>
<!-- CommonModule -->
<g id="node3" class="node">
<title>CommonModule</title>
<polygon fill="#8dd3c7" stroke="black" points="700.67,-122 697.67,-126 676.67,-126 673.67,-122 589.33,-122 589.33,-86 700.67,-86 700.67,-122"/>
<text text-anchor="middle" x="645" y="-99.8" font-family="Times,serif" font-size="14.00">CommonModule</text>
</g>
<!-- CommonModule&#45;&gt;LoginPageModule -->
<g id="edge2" class="edge">
<title>CommonModule&#45;&gt;LoginPageModule</title>
<path fill="none" stroke="black" d="M589.27,-104C582.48,-104 577.88,-104 577.88,-104 577.88,-104 577.88,-140.89 577.88,-140.89"/>
<polygon fill="black" stroke="black" points="574.38,-140.89 577.88,-150.89 581.38,-140.89 574.38,-140.89"/>
</g>
<!-- FormsModule -->
<g id="node4" class="node">
<title>FormsModule</title>
<polygon fill="#8dd3c7" stroke="black" points="571.83,-122 568.83,-126 547.83,-126 544.83,-122 476.17,-122 476.17,-86 571.83,-86 571.83,-122"/>
<text text-anchor="middle" x="524" y="-99.8" font-family="Times,serif" font-size="14.00">FormsModule</text>
</g>
<!-- FormsModule&#45;&gt;LoginPageModule -->
<g id="edge3" class="edge">
<title>FormsModule&#45;&gt;LoginPageModule</title>
<path fill="none" stroke="black" d="M524,-122.11C524,-122.11 524,-140.99 524,-140.99"/>
<polygon fill="black" stroke="black" points="520.5,-140.99 524,-150.99 527.5,-140.99 520.5,-140.99"/>
</g>
<!-- ReactiveFormsModule -->
<g id="node5" class="node">
<title>ReactiveFormsModule</title>
<polygon fill="#8dd3c7" stroke="black" points="458.3,-122 455.3,-126 434.3,-126 431.3,-122 313.7,-122 313.7,-86 458.3,-86 458.3,-122"/>
<text text-anchor="middle" x="386" y="-99.8" font-family="Times,serif" font-size="14.00">ReactiveFormsModule</text>
</g>
<!-- ReactiveFormsModule&#45;&gt;LoginPageModule -->
<g id="edge4" class="edge">
<title>ReactiveFormsModule&#45;&gt;LoginPageModule</title>
<path fill="none" stroke="black" d="M458.42,-104C465.5,-104 470.12,-104 470.12,-104 470.12,-104 470.12,-140.89 470.12,-140.89"/>
<polygon fill="black" stroke="black" points="466.62,-140.89 470.12,-150.89 473.62,-140.89 466.62,-140.89"/>
</g>
<!-- IonicModule -->
<g id="node6" class="node">
<title>IonicModule</title>
<polygon fill="#8dd3c7" stroke="black" points="296.32,-122 293.32,-126 272.32,-126 269.32,-122 207.68,-122 207.68,-86 296.32,-86 296.32,-122"/>
<text text-anchor="middle" x="252" y="-99.8" font-family="Times,serif" font-size="14.00">IonicModule</text>
</g>
<!-- IonicModule&#45;&gt;LoginPageModule -->
<g id="edge5" class="edge">
<title>IonicModule&#45;&gt;LoginPageModule</title>
<path fill="none" stroke="black" d="M252,-122.02C252,-139.37 252,-163 252,-163 252,-163 453.63,-163 453.63,-163"/>
<polygon fill="black" stroke="black" points="453.63,-166.5 463.63,-163 453.63,-159.5 453.63,-166.5"/>
</g>
<!-- LoginPageRoutingModule -->
<g id="node7" class="node">
<title>LoginPageRoutingModule</title>
<polygon fill="#8dd3c7" stroke="black" points="189.82,-122 186.82,-126 165.82,-126 162.82,-122 24.18,-122 24.18,-86 189.82,-86 189.82,-122"/>
<text text-anchor="middle" x="107" y="-99.8" font-family="Times,serif" font-size="14.00">LoginPageRoutingModule</text>
</g>
<!-- LoginPageRoutingModule&#45;&gt;LoginPageModule -->
<g id="edge6" class="edge">
<title>LoginPageRoutingModule&#45;&gt;LoginPageModule</title>
<path fill="none" stroke="black" d="M107,-122.28C107,-143.32 107,-175 107,-175 107,-175 453.81,-175 453.81,-175"/>
<polygon fill="black" stroke="black" points="453.81,-178.5 463.81,-175 453.81,-171.5 453.81,-178.5"/>
</g>
<!-- LoginLogic -->
<g id="node8" class="node">
<title>LoginLogic</title>
<ellipse fill="#fdb462" stroke="black" cx="882" cy="-104" rx="56.76" ry="18"/>
<text text-anchor="middle" x="882" y="-99.8" font-family="Times,serif" font-size="14.00">LoginLogic</text>
</g>
<!-- LoginLogic&#45;&gt;LoginPageModule -->
<g id="edge7" class="edge">
<title>LoginLogic&#45;&gt;LoginPageModule</title>
<path fill="none" stroke="black" d="M882,-122.28C882,-143.32 882,-175 882,-175 882,-175 594.32,-175 594.32,-175"/>
<polygon fill="black" stroke="black" points="594.33,-171.5 584.32,-175 594.32,-178.5 594.33,-171.5"/>
</g>
</g>
</svg>
