<?xml version="1.0" encoding="UTF-8" standalone="no"?>
<!DOCTYPE svg PUBLIC "-//W3C//DTD SVG 1.1//EN"
 "http://www.w3.org/Graphics/SVG/1.1/DTD/svg11.dtd">
<!-- Generated by graphviz version 2.44.1 (20200629.0846)
 -->
<!-- Title: dependencies Pages: 1 -->
<svg width="1517pt" height="284pt"
 viewBox="0.00 0.00 1517.00 284.00" xmlns="http://www.w3.org/2000/svg" xmlns:xlink="http://www.w3.org/1999/xlink">
<g id="graph0" class="graph" transform="scale(1 1) rotate(0) translate(4 280)">
<title>dependencies</title>
<polygon fill="white" stroke="transparent" points="-4,4 -4,-280 1513,-280 1513,4 -4,4"/>
<text text-anchor="start" x="733.51" y="-42.4" font-family="sans-serif" font-weight="bold" font-size="14.00">Legend</text>
<polygon fill="#ffffb3" stroke="transparent" points="520.5,-10 520.5,-30 540.5,-30 540.5,-10 520.5,-10"/>
<text text-anchor="start" x="544.13" y="-15.4" font-family="sans-serif" font-size="14.00"> &#160;Declarations</text>
<polygon fill="#8dd3c7" stroke="transparent" points="633.5,-10 633.5,-30 653.5,-30 653.5,-10 633.5,-10"/>
<text text-anchor="start" x="657.23" y="-15.4" font-family="sans-serif" font-size="14.00"> &#160;Module</text>
<polygon fill="#80b1d3" stroke="transparent" points="719.5,-10 719.5,-30 739.5,-30 739.5,-10 719.5,-10"/>
<text text-anchor="start" x="743.28" y="-15.4" font-family="sans-serif" font-size="14.00"> &#160;Bootstrap</text>
<polygon fill="#fdb462" stroke="transparent" points="816.5,-10 816.5,-30 836.5,-30 836.5,-10 816.5,-10"/>
<text text-anchor="start" x="840.17" y="-15.4" font-family="sans-serif" font-size="14.00"> &#160;Providers</text>
<polygon fill="#fb8072" stroke="transparent" points="912.5,-10 912.5,-30 932.5,-30 932.5,-10 912.5,-10"/>
<text text-anchor="start" x="936.23" y="-15.4" font-family="sans-serif" font-size="14.00"> &#160;Exports</text>
<g id="clust1" class="cluster">
<title>cluster_AppModule</title>
<polygon fill="none" stroke="black" stroke-dasharray="1,5" points="8,-70 8,-268 1501,-268 1501,-70 8,-70"/>
</g>
<g id="clust4" class="cluster">
<title>cluster_AppModule_imports</title>
<polygon fill="none" stroke="black" points="944,-78 944,-130 1493,-130 1493,-78 944,-78"/>
</g>
<g id="clust7" class="cluster">
<title>cluster_AppModule_providers</title>
<polygon fill="none" stroke="black" points="146,-78 146,-130 936,-130 936,-78 146,-78"/>
</g>
<g id="clust2" class="cluster">
<title>cluster_AppModule_declarations</title>
<polygon fill="none" stroke="black" points="16,-78 16,-130 138,-130 138,-78 16,-78"/>
</g>
<g id="clust6" class="cluster">
<title>cluster_AppModule_bootstrap</title>
<polygon fill="none" stroke="black" points="878,-208 878,-260 1002,-260 1002,-208 878,-208"/>
</g>
<!-- AppComponent -->
<g id="node1" class="node">
<title>AppComponent</title>
<polygon fill="#ffffb3" stroke="black" points="129.94,-122 24.06,-122 24.06,-86 129.94,-86 129.94,-122"/>
<text text-anchor="middle" x="77" y="-99.8" font-family="Times,serif" font-size="14.00">AppComponent</text>
</g>
<!-- AppModule -->
<g id="node2" class="node">
<title>AppModule</title>
<polygon fill="#8dd3c7" stroke="black" points="981.66,-187 978.66,-191 957.66,-191 954.66,-187 898.34,-187 898.34,-151 981.66,-151 981.66,-187"/>
<text text-anchor="middle" x="940" y="-164.8" font-family="Times,serif" font-size="14.00">AppModule</text>
</g>
<!-- AppComponent&#45;&gt;AppModule -->
<g id="edge1" class="edge">
<title>AppComponent&#45;&gt;AppModule</title>
<path fill="none" stroke="black" d="M77,-122.29C77,-144.21 77,-178 77,-178 77,-178 888.08,-178 888.08,-178"/>
<polygon fill="black" stroke="black" points="888.08,-181.5 898.08,-178 888.08,-174.5 888.08,-181.5"/>
</g>
<!-- AppComponent  -->
<g id="node7" class="node">
<title>AppComponent </title>
<polygon fill="#80b1d3" stroke="black" points="994.44,-252 885.56,-252 885.56,-216 994.44,-216 994.44,-252"/>
<text text-anchor="middle" x="940" y="-229.8" font-family="Times,serif" font-size="14.00">AppComponent </text>
</g>
<!-- AppModule&#45;&gt;AppComponent  -->
<g id="edge6" class="edge">
<title>AppModule&#45;&gt;AppComponent </title>
<path fill="none" stroke="black" stroke-dasharray="1,5" d="M940,-187.11C940,-187.11 940,-205.99 940,-205.99"/>
<polygon fill="black" stroke="black" points="936.5,-205.99 940,-215.99 943.5,-205.99 936.5,-205.99"/>
</g>
<!-- BrowserModule -->
<g id="node3" class="node">
<title>BrowserModule</title>
<polygon fill="#8dd3c7" stroke="black" points="1485.47,-122 1482.47,-126 1461.47,-126 1458.47,-122 1378.53,-122 1378.53,-86 1485.47,-86 1485.47,-122"/>
<text text-anchor="middle" x="1432" y="-99.8" font-family="Times,serif" font-size="14.00">BrowserModule</text>
</g>
<!-- BrowserModule&#45;&gt;AppModule -->
<g id="edge2" class="edge">
<title>BrowserModule&#45;&gt;AppModule</title>
<path fill="none" stroke="black" d="M1432,-122.29C1432,-144.21 1432,-178 1432,-178 1432,-178 991.95,-178 991.95,-178"/>
<polygon fill="black" stroke="black" points="991.95,-174.5 981.95,-178 991.95,-181.5 991.95,-174.5"/>
</g>
<!-- IonicModule.forRoot() -->
<g id="node4" class="node">
<title>IonicModule.forRoot()</title>
<polygon fill="#8dd3c7" stroke="black" points="1360.19,-122 1357.19,-126 1336.19,-126 1333.19,-122 1215.81,-122 1215.81,-86 1360.19,-86 1360.19,-122"/>
<text text-anchor="middle" x="1288" y="-99.8" font-family="Times,serif" font-size="14.00">IonicModule.forRoot()</text>
</g>
<!-- IonicModule.forRoot()&#45;&gt;AppModule -->
<g id="edge3" class="edge">
<title>IonicModule.forRoot()&#45;&gt;AppModule</title>
<path fill="none" stroke="black" d="M1288,-122.11C1288,-141.34 1288,-169 1288,-169 1288,-169 991.98,-169 991.98,-169"/>
<polygon fill="black" stroke="black" points="991.98,-165.5 981.98,-169 991.98,-172.5 991.98,-165.5"/>
</g>
<!-- AppRoutingModule -->
<g id="node5" class="node">
<title>AppRoutingModule</title>
<polygon fill="#8dd3c7" stroke="black" points="1197.27,-122 1194.27,-126 1173.27,-126 1170.27,-122 1068.73,-122 1068.73,-86 1197.27,-86 1197.27,-122"/>
<text text-anchor="middle" x="1133" y="-99.8" font-family="Times,serif" font-size="14.00">AppRoutingModule</text>
</g>
<!-- AppRoutingModule&#45;&gt;AppModule -->
<g id="edge4" class="edge">
<title>AppRoutingModule&#45;&gt;AppModule</title>
<path fill="none" stroke="black" d="M1133,-122.03C1133,-138.4 1133,-160 1133,-160 1133,-160 991.88,-160 991.88,-160"/>
<polygon fill="black" stroke="black" points="991.88,-156.5 981.88,-160 991.88,-163.5 991.88,-156.5"/>
</g>
<!-- SharedModule -->
<g id="node6" class="node">
<title>SharedModule</title>
<polygon fill="#8dd3c7" stroke="black" points="1050.42,-122 1047.42,-126 1026.42,-126 1023.42,-122 951.58,-122 951.58,-86 1050.42,-86 1050.42,-122"/>
<text text-anchor="middle" x="1001" y="-99.8" font-family="Times,serif" font-size="14.00">SharedModule</text>
</g>
<!-- SharedModule&#45;&gt;AppModule -->
<g id="edge5" class="edge">
<title>SharedModule&#45;&gt;AppModule</title>
<path fill="none" stroke="black" d="M966.81,-122.11C966.81,-122.11 966.81,-140.99 966.81,-140.99"/>
<polygon fill="black" stroke="black" points="963.31,-140.99 966.81,-150.99 970.31,-140.99 963.31,-140.99"/>
</g>
<!-- StatusBar -->
<g id="node8" class="node">
<title>StatusBar</title>
<ellipse fill="#fdb462" stroke="black" cx="879" cy="-104" rx="48.67" ry="18"/>
<text text-anchor="middle" x="879" y="-99.8" font-family="Times,serif" font-size="14.00">StatusBar</text>
</g>
<!-- StatusBar&#45;&gt;AppModule -->
<g id="edge7" class="edge">
<title>StatusBar&#45;&gt;AppModule</title>
<path fill="none" stroke="black" d="M912.88,-117.15C912.88,-117.15 912.88,-140.69 912.88,-140.69"/>
<polygon fill="black" stroke="black" points="909.38,-140.69 912.88,-150.69 916.38,-140.69 909.38,-140.69"/>
</g>
<!-- SplashScreen -->
<g id="node9" class="node">
<title>SplashScreen</title>
<ellipse fill="#fdb462" stroke="black" cx="749" cy="-104" rx="63.12" ry="18"/>
<text text-anchor="middle" x="749" y="-99.8" font-family="Times,serif" font-size="14.00">SplashScreen</text>
</g>
<!-- SplashScreen&#45;&gt;AppModule -->
<g id="edge8" class="edge">
<title>SplashScreen&#45;&gt;AppModule</title>
<path fill="none" stroke="black" d="M749,-122.03C749,-138.4 749,-160 749,-160 749,-160 888.08,-160 888.08,-160"/>
<polygon fill="black" stroke="black" points="888.08,-163.5 898.08,-160 888.08,-156.5 888.08,-163.5"/>
</g>
<!-- { provide: RouteReuseStrategy, useClass: IonicRouteStrategy } -->
<g id="node10" class="node">
<title>{ provide: RouteReuseStrategy, useClass: IonicRouteStrategy }</title>
<ellipse fill="#fdb462" stroke="black" cx="411" cy="-104" rx="257.27" ry="18"/>
<text text-anchor="middle" x="411" y="-99.8" font-family="Times,serif" font-size="14.00">{ provide: RouteReuseStrategy, useClass: IonicRouteStrategy }</text>
</g>
<!-- { provide: RouteReuseStrategy, useClass: IonicRouteStrategy }&#45;&gt;AppModule -->
<g id="edge9" class="edge">
<title>{ provide: RouteReuseStrategy, useClass: IonicRouteStrategy }&#45;&gt;AppModule</title>
<path fill="none" stroke="black" d="M411,-122.11C411,-141.34 411,-169 411,-169 411,-169 888.05,-169 888.05,-169"/>
<polygon fill="black" stroke="black" points="888.05,-172.5 898.05,-169 888.05,-165.5 888.05,-172.5"/>
</g>
</g>
</svg>
