<?xml version="1.0" encoding="UTF-8" standalone="no"?>
<!DOCTYPE svg PUBLIC "-//W3C//DTD SVG 1.1//EN"
 "http://www.w3.org/Graphics/SVG/1.1/DTD/svg11.dtd">
<!-- Generated by graphviz version 2.44.1 (20200629.0846)
 -->
<!-- Title: dependencies Pages: 1 -->
<svg width="1165pt" height="211pt"
 viewBox="0.00 0.00 1165.00 211.00" xmlns="http://www.w3.org/2000/svg" xmlns:xlink="http://www.w3.org/1999/xlink">
<g id="graph0" class="graph" transform="scale(1 1) rotate(0) translate(4 207)">
<title>dependencies</title>
<polygon fill="white" stroke="transparent" points="-4,4 -4,-207 1161,-207 1161,4 -4,4"/>
<text text-anchor="start" x="557.51" y="-42.4" font-family="sans-serif" font-weight="bold" font-size="14.00">Legend</text>
<polygon fill="#ffffb3" stroke="transparent" points="344.5,-10 344.5,-30 364.5,-30 364.5,-10 344.5,-10"/>
<text text-anchor="start" x="368.13" y="-15.4" font-family="sans-serif" font-size="14.00"> &#160;Declarations</text>
<polygon fill="#8dd3c7" stroke="transparent" points="457.5,-10 457.5,-30 477.5,-30 477.5,-10 457.5,-10"/>
<text text-anchor="start" x="481.23" y="-15.4" font-family="sans-serif" font-size="14.00"> &#160;Module</text>
<polygon fill="#80b1d3" stroke="transparent" points="543.5,-10 543.5,-30 563.5,-30 563.5,-10 543.5,-10"/>
<text text-anchor="start" x="567.28" y="-15.4" font-family="sans-serif" font-size="14.00"> &#160;Bootstrap</text>
<polygon fill="#fdb462" stroke="transparent" points="640.5,-10 640.5,-30 660.5,-30 660.5,-10 640.5,-10"/>
<text text-anchor="start" x="664.17" y="-15.4" font-family="sans-serif" font-size="14.00"> &#160;Providers</text>
<polygon fill="#fb8072" stroke="transparent" points="736.5,-10 736.5,-30 756.5,-30 756.5,-10 736.5,-10"/>
<text text-anchor="start" x="760.23" y="-15.4" font-family="sans-serif" font-size="14.00"> &#160;Exports</text>
<g id="clust1" class="cluster">
<title>cluster_SignupPageModule</title>
<polygon fill="none" stroke="black" stroke-dasharray="1,5" points="8,-70 8,-195 1149,-195 1149,-70 8,-70"/>
</g>
<g id="clust4" class="cluster">
<title>cluster_SignupPageModule_imports</title>
<polygon fill="none" stroke="black" points="326,-78 326,-130 1141,-130 1141,-78 326,-78"/>
</g>
<g id="clust7" class="cluster">
<title>cluster_SignupPageModule_providers</title>
<polygon fill="none" stroke="black" points="122,-78 122,-130 318,-130 318,-78 122,-78"/>
</g>
<g id="clust2" class="cluster">
<title>cluster_SignupPageModule_declarations</title>
<polygon fill="none" stroke="black" points="16,-78 16,-130 114,-130 114,-78 16,-78"/>
</g>
<!-- SignupPage -->
<g id="node1" class="node">
<title>SignupPage</title>
<polygon fill="#ffffb3" stroke="black" points="106.39,-122 23.61,-122 23.61,-86 106.39,-86 106.39,-122"/>
<text text-anchor="middle" x="65" y="-99.8" font-family="Times,serif" font-size="14.00">SignupPage</text>
</g>
<!-- SignupPageModule -->
<g id="node2" class="node">
<title>SignupPageModule</title>
<polygon fill="#8dd3c7" stroke="black" points="728.44,-187 725.44,-191 704.44,-191 701.44,-187 601.56,-187 601.56,-151 728.44,-151 728.44,-187"/>
<text text-anchor="middle" x="665" y="-164.8" font-family="Times,serif" font-size="14.00">SignupPageModule</text>
</g>
<!-- SignupPage&#45;&gt;SignupPageModule -->
<g id="edge1" class="edge">
<title>SignupPage&#45;&gt;SignupPageModule</title>
<path fill="none" stroke="black" d="M65,-122.29C65,-144.21 65,-178 65,-178 65,-178 591.64,-178 591.64,-178"/>
<polygon fill="black" stroke="black" points="591.64,-181.5 601.64,-178 591.64,-174.5 591.64,-181.5"/>
</g>
<!-- CommonModule -->
<g id="node3" class="node">
<title>CommonModule</title>
<polygon fill="#8dd3c7" stroke="black" points="1132.67,-122 1129.67,-126 1108.67,-126 1105.67,-122 1021.33,-122 1021.33,-86 1132.67,-86 1132.67,-122"/>
<text text-anchor="middle" x="1077" y="-99.8" font-family="Times,serif" font-size="14.00">CommonModule</text>
</g>
<!-- CommonModule&#45;&gt;SignupPageModule -->
<g id="edge2" class="edge">
<title>CommonModule&#45;&gt;SignupPageModule</title>
<path fill="none" stroke="black" d="M1077,-122.29C1077,-144.21 1077,-178 1077,-178 1077,-178 738.47,-178 738.47,-178"/>
<polygon fill="black" stroke="black" points="738.47,-174.5 728.47,-178 738.47,-181.5 738.47,-174.5"/>
</g>
<!-- FormsModule -->
<g id="node4" class="node">
<title>FormsModule</title>
<polygon fill="#8dd3c7" stroke="black" points="1003.83,-122 1000.83,-126 979.83,-126 976.83,-122 908.17,-122 908.17,-86 1003.83,-86 1003.83,-122"/>
<text text-anchor="middle" x="956" y="-99.8" font-family="Times,serif" font-size="14.00">FormsModule</text>
</g>
<!-- FormsModule&#45;&gt;SignupPageModule -->
<g id="edge3" class="edge">
<title>FormsModule&#45;&gt;SignupPageModule</title>
<path fill="none" stroke="black" d="M956,-122.11C956,-141.34 956,-169 956,-169 956,-169 738.5,-169 738.5,-169"/>
<polygon fill="black" stroke="black" points="738.5,-165.5 728.5,-169 738.5,-172.5 738.5,-165.5"/>
</g>
<!-- IonicModule -->
<g id="node5" class="node">
<title>IonicModule</title>
<polygon fill="#8dd3c7" stroke="black" points="890.32,-122 887.32,-126 866.32,-126 863.32,-122 801.68,-122 801.68,-86 890.32,-86 890.32,-122"/>
<text text-anchor="middle" x="846" y="-99.8" font-family="Times,serif" font-size="14.00">IonicModule</text>
</g>
<!-- IonicModule&#45;&gt;SignupPageModule -->
<g id="edge4" class="edge">
<title>IonicModule&#45;&gt;SignupPageModule</title>
<path fill="none" stroke="black" d="M846,-122.03C846,-138.4 846,-160 846,-160 846,-160 738.31,-160 738.31,-160"/>
<polygon fill="black" stroke="black" points="738.31,-156.5 728.31,-160 738.3,-163.5 738.31,-156.5"/>
</g>
<!-- SharedModule -->
<g id="node6" class="node">
<title>SharedModule</title>
<polygon fill="#8dd3c7" stroke="black" points="784.42,-122 781.42,-126 760.42,-126 757.42,-122 685.58,-122 685.58,-86 784.42,-86 784.42,-122"/>
<text text-anchor="middle" x="735" y="-99.8" font-family="Times,serif" font-size="14.00">SharedModule</text>
</g>
<!-- SharedModule&#45;&gt;SignupPageModule -->
<g id="edge5" class="edge">
<title>SharedModule&#45;&gt;SignupPageModule</title>
<path fill="none" stroke="black" d="M707,-122.11C707,-122.11 707,-140.99 707,-140.99"/>
<polygon fill="black" stroke="black" points="703.5,-140.99 707,-150.99 710.5,-140.99 703.5,-140.99"/>
</g>
<!-- ReactiveFormsModule -->
<g id="node7" class="node">
<title>ReactiveFormsModule</title>
<polygon fill="#8dd3c7" stroke="black" points="668.3,-122 665.3,-126 644.3,-126 641.3,-122 523.7,-122 523.7,-86 668.3,-86 668.3,-122"/>
<text text-anchor="middle" x="596" y="-99.8" font-family="Times,serif" font-size="14.00">ReactiveFormsModule</text>
</g>
<!-- ReactiveFormsModule&#45;&gt;SignupPageModule -->
<g id="edge6" class="edge">
<title>ReactiveFormsModule&#45;&gt;SignupPageModule</title>
<path fill="none" stroke="black" d="M634.97,-122.11C634.97,-122.11 634.97,-140.99 634.97,-140.99"/>
<polygon fill="black" stroke="black" points="631.47,-140.99 634.97,-150.99 638.47,-140.99 631.47,-140.99"/>
</g>
<!-- SignupPageRoutingModule -->
<g id="node8" class="node">
<title>SignupPageRoutingModule</title>
<polygon fill="#8dd3c7" stroke="black" points="505.55,-122 502.55,-126 481.55,-126 478.55,-122 334.45,-122 334.45,-86 505.55,-86 505.55,-122"/>
<text text-anchor="middle" x="420" y="-99.8" font-family="Times,serif" font-size="14.00">SignupPageRoutingModule</text>
</g>
<!-- SignupPageRoutingModule&#45;&gt;SignupPageModule -->
<g id="edge7" class="edge">
<title>SignupPageRoutingModule&#45;&gt;SignupPageModule</title>
<path fill="none" stroke="black" d="M420,-122.03C420,-138.4 420,-160 420,-160 420,-160 591.59,-160 591.59,-160"/>
<polygon fill="black" stroke="black" points="591.59,-163.5 601.59,-160 591.59,-156.5 591.59,-163.5"/>
</g>
<!-- SignupLogicService -->
<g id="node9" class="node">
<title>SignupLogicService</title>
<ellipse fill="#fdb462" stroke="black" cx="220" cy="-104" rx="89.77" ry="18"/>
<text text-anchor="middle" x="220" y="-99.8" font-family="Times,serif" font-size="14.00">SignupLogicService</text>
</g>
<!-- SignupLogicService&#45;&gt;SignupPageModule -->
<g id="edge8" class="edge">
<title>SignupLogicService&#45;&gt;SignupPageModule</title>
<path fill="none" stroke="black" d="M220,-122.11C220,-141.34 220,-169 220,-169 220,-169 591.71,-169 591.71,-169"/>
<polygon fill="black" stroke="black" points="591.71,-172.5 601.71,-169 591.71,-165.5 591.71,-172.5"/>
</g>
</g>
</svg>
