<?xml version="1.0" encoding="UTF-8" standalone="no"?>
<!DOCTYPE svg PUBLIC "-//W3C//DTD SVG 1.1//EN"
 "http://www.w3.org/Graphics/SVG/1.1/DTD/svg11.dtd">
<!-- Generated by graphviz version 2.44.1 (20200629.0846)
 -->
<!-- Title: dependencies Pages: 1 -->
<svg width="843pt" height="211pt"
 viewBox="0.00 0.00 843.00 211.00" xmlns="http://www.w3.org/2000/svg" xmlns:xlink="http://www.w3.org/1999/xlink">
<g id="graph0" class="graph" transform="scale(1 1) rotate(0) translate(4 207)">
<title>dependencies</title>
<polygon fill="white" stroke="transparent" points="-4,4 -4,-207 839,-207 839,4 -4,4"/>
<text text-anchor="start" x="396.51" y="-42.4" font-family="sans-serif" font-weight="bold" font-size="14.00">Legend</text>
<polygon fill="#ffffb3" stroke="transparent" points="183.5,-10 183.5,-30 203.5,-30 203.5,-10 183.5,-10"/>
<text text-anchor="start" x="207.13" y="-15.4" font-family="sans-serif" font-size="14.00"> &#160;Declarations</text>
<polygon fill="#8dd3c7" stroke="transparent" points="296.5,-10 296.5,-30 316.5,-30 316.5,-10 296.5,-10"/>
<text text-anchor="start" x="320.23" y="-15.4" font-family="sans-serif" font-size="14.00"> &#160;Module</text>
<polygon fill="#80b1d3" stroke="transparent" points="382.5,-10 382.5,-30 402.5,-30 402.5,-10 382.5,-10"/>
<text text-anchor="start" x="406.28" y="-15.4" font-family="sans-serif" font-size="14.00"> &#160;Bootstrap</text>
<polygon fill="#fdb462" stroke="transparent" points="479.5,-10 479.5,-30 499.5,-30 499.5,-10 479.5,-10"/>
<text text-anchor="start" x="503.17" y="-15.4" font-family="sans-serif" font-size="14.00"> &#160;Providers</text>
<polygon fill="#fb8072" stroke="transparent" points="575.5,-10 575.5,-30 595.5,-30 595.5,-10 575.5,-10"/>
<text text-anchor="start" x="599.23" y="-15.4" font-family="sans-serif" font-size="14.00"> &#160;Exports</text>
<g id="clust1" class="cluster">
<title>cluster_TaskDetailPageModule</title>
<polygon fill="none" stroke="black" stroke-dasharray="1,5" points="8,-70 8,-195 827,-195 827,-70 8,-70"/>
</g>
<g id="clust4" class="cluster">
<title>cluster_TaskDetailPageModule_imports</title>
<polygon fill="none" stroke="black" points="144,-78 144,-130 819,-130 819,-78 144,-78"/>
</g>
<g id="clust2" class="cluster">
<title>cluster_TaskDetailPageModule_declarations</title>
<polygon fill="none" stroke="black" points="16,-78 16,-130 136,-130 136,-78 16,-78"/>
</g>
<!-- TaskDetailPage -->
<g id="node1" class="node">
<title>TaskDetailPage</title>
<polygon fill="#ffffb3" stroke="black" points="128.13,-122 23.87,-122 23.87,-86 128.13,-86 128.13,-122"/>
<text text-anchor="middle" x="76" y="-99.8" font-family="Times,serif" font-size="14.00">TaskDetailPage</text>
</g>
<!-- TaskDetailPageModule -->
<g id="node2" class="node">
<title>TaskDetailPageModule</title>
<polygon fill="#8dd3c7" stroke="black" points="542.18,-187 539.18,-191 518.18,-191 515.18,-187 393.82,-187 393.82,-151 542.18,-151 542.18,-187"/>
<text text-anchor="middle" x="468" y="-164.8" font-family="Times,serif" font-size="14.00">TaskDetailPageModule</text>
</g>
<!-- TaskDetailPage&#45;&gt;TaskDetailPageModule -->
<g id="edge1" class="edge">
<title>TaskDetailPage&#45;&gt;TaskDetailPageModule</title>
<path fill="none" stroke="black" d="M76,-122.28C76,-143.32 76,-175 76,-175 76,-175 383.81,-175 383.81,-175"/>
<polygon fill="black" stroke="black" points="383.81,-178.5 393.81,-175 383.81,-171.5 383.81,-178.5"/>
</g>
<!-- CommonModule -->
<g id="node3" class="node">
<title>CommonModule</title>
<polygon fill="#8dd3c7" stroke="black" points="810.67,-122 807.67,-126 786.67,-126 783.67,-122 699.33,-122 699.33,-86 810.67,-86 810.67,-122"/>
<text text-anchor="middle" x="755" y="-99.8" font-family="Times,serif" font-size="14.00">CommonModule</text>
</g>
<!-- CommonModule&#45;&gt;TaskDetailPageModule -->
<g id="edge2" class="edge">
<title>CommonModule&#45;&gt;TaskDetailPageModule</title>
<path fill="none" stroke="black" d="M755,-122.28C755,-143.32 755,-175 755,-175 755,-175 552.28,-175 552.28,-175"/>
<polygon fill="black" stroke="black" points="552.28,-171.5 542.28,-175 552.28,-178.5 552.28,-171.5"/>
</g>
<!-- FormsModule -->
<g id="node4" class="node">
<title>FormsModule</title>
<polygon fill="#8dd3c7" stroke="black" points="681.83,-122 678.83,-126 657.83,-126 654.83,-122 586.17,-122 586.17,-86 681.83,-86 681.83,-122"/>
<text text-anchor="middle" x="634" y="-99.8" font-family="Times,serif" font-size="14.00">FormsModule</text>
</g>
<!-- FormsModule&#45;&gt;TaskDetailPageModule -->
<g id="edge3" class="edge">
<title>FormsModule&#45;&gt;TaskDetailPageModule</title>
<path fill="none" stroke="black" d="M634,-122.02C634,-139.37 634,-163 634,-163 634,-163 552.26,-163 552.26,-163"/>
<polygon fill="black" stroke="black" points="552.26,-159.5 542.26,-163 552.26,-166.5 552.26,-159.5"/>
</g>
<!-- IonicModule -->
<g id="node5" class="node">
<title>IonicModule</title>
<polygon fill="#8dd3c7" stroke="black" points="568.32,-122 565.32,-126 544.32,-126 541.32,-122 479.68,-122 479.68,-86 568.32,-86 568.32,-122"/>
<text text-anchor="middle" x="524" y="-99.8" font-family="Times,serif" font-size="14.00">IonicModule</text>
</g>
<!-- IonicModule&#45;&gt;TaskDetailPageModule -->
<g id="edge4" class="edge">
<title>IonicModule&#45;&gt;TaskDetailPageModule</title>
<path fill="none" stroke="black" d="M510.97,-122.11C510.97,-122.11 510.97,-140.99 510.97,-140.99"/>
<polygon fill="black" stroke="black" points="507.47,-140.99 510.97,-150.99 514.47,-140.99 507.47,-140.99"/>
</g>
<!-- SharedModule -->
<g id="node6" class="node">
<title>SharedModule</title>
<polygon fill="#8dd3c7" stroke="black" points="462.42,-122 459.42,-126 438.42,-126 435.42,-122 363.58,-122 363.58,-86 462.42,-86 462.42,-122"/>
<text text-anchor="middle" x="413" y="-99.8" font-family="Times,serif" font-size="14.00">SharedModule</text>
</g>
<!-- SharedModule&#45;&gt;TaskDetailPageModule -->
<g id="edge5" class="edge">
<title>SharedModule&#45;&gt;TaskDetailPageModule</title>
<path fill="none" stroke="black" d="M428.06,-122.11C428.06,-122.11 428.06,-140.99 428.06,-140.99"/>
<polygon fill="black" stroke="black" points="424.56,-140.99 428.06,-150.99 431.56,-140.99 424.56,-140.99"/>
</g>
<!-- TaskDetailPageRoutingModule -->
<g id="node7" class="node">
<title>TaskDetailPageRoutingModule</title>
<polygon fill="#8dd3c7" stroke="black" points="345.8,-122 342.8,-126 321.8,-126 318.8,-122 152.2,-122 152.2,-86 345.8,-86 345.8,-122"/>
<text text-anchor="middle" x="249" y="-99.8" font-family="Times,serif" font-size="14.00">TaskDetailPageRoutingModule</text>
</g>
<!-- TaskDetailPageRoutingModule&#45;&gt;TaskDetailPageModule -->
<g id="edge6" class="edge">
<title>TaskDetailPageRoutingModule&#45;&gt;TaskDetailPageModule</title>
<path fill="none" stroke="black" d="M249,-122.02C249,-139.37 249,-163 249,-163 249,-163 383.86,-163 383.86,-163"/>
<polygon fill="black" stroke="black" points="383.86,-166.5 393.86,-163 383.86,-159.5 383.86,-166.5"/>
</g>
</g>
</svg>
